<mxfile host="app.diagrams.net" modified="2023-10-08T22:42:02.581Z" agent="Mozilla/5.0 (Windows NT 10.0; Win64; x64) AppleWebKit/537.36 (KHTML, like Gecko) Chrome/117.0.0.0 Safari/537.36" etag="GtXpig_GoC6I0U_F16uK" version="22.0.0" type="github">
  <diagram name="Page-1" id="6amshhikEjCK_6624qVd">
    <mxGraphModel dx="1050" dy="572" grid="1" gridSize="10" guides="1" tooltips="1" connect="1" arrows="1" fold="1" page="1" pageScale="1" pageWidth="827" pageHeight="1169" math="0" shadow="0">
      <root>
        <mxCell id="0" />
        <mxCell id="1" parent="0" />
        <mxCell id="USl1ifPrtfJnEXk17NBj-19" style="edgeStyle=orthogonalEdgeStyle;rounded=0;orthogonalLoop=1;jettySize=auto;html=1;exitX=0;exitY=0.5;exitDx=0;exitDy=0;exitPerimeter=0;entryX=0;entryY=0.5;entryDx=0;entryDy=0;" edge="1" parent="1" source="USl1ifPrtfJnEXk17NBj-1" target="USl1ifPrtfJnEXk17NBj-3">
          <mxGeometry relative="1" as="geometry">
            <mxPoint x="50" y="350" as="targetPoint" />
            <Array as="points">
              <mxPoint x="60" y="111" />
              <mxPoint x="60" y="331" />
            </Array>
          </mxGeometry>
        </mxCell>
        <mxCell id="USl1ifPrtfJnEXk17NBj-1" value="" style="verticalLabelPosition=bottom;html=1;verticalAlign=top;align=center;strokeColor=none;fillColor=#00BEF2;shape=mxgraph.azure.website_generic;pointerEvents=1;" vertex="1" parent="1">
          <mxGeometry x="120" y="90" width="50" height="42.5" as="geometry" />
        </mxCell>
        <mxCell id="USl1ifPrtfJnEXk17NBj-6" style="edgeStyle=orthogonalEdgeStyle;rounded=0;orthogonalLoop=1;jettySize=auto;html=1;exitX=1;exitY=0.5;exitDx=0;exitDy=0;" edge="1" parent="1" source="USl1ifPrtfJnEXk17NBj-8">
          <mxGeometry relative="1" as="geometry">
            <mxPoint x="240" y="216.495" as="sourcePoint" />
            <mxPoint x="320" y="220.89999999999998" as="targetPoint" />
          </mxGeometry>
        </mxCell>
        <mxCell id="USl1ifPrtfJnEXk17NBj-7" style="edgeStyle=orthogonalEdgeStyle;rounded=0;orthogonalLoop=1;jettySize=auto;html=1;entryX=0.5;entryY=1;entryDx=0;entryDy=0;" edge="1" parent="1" source="USl1ifPrtfJnEXk17NBj-3" target="USl1ifPrtfJnEXk17NBj-18">
          <mxGeometry relative="1" as="geometry">
            <mxPoint x="350" y="259.46102272727273" as="targetPoint" />
            <Array as="points">
              <mxPoint x="350" y="331" />
            </Array>
          </mxGeometry>
        </mxCell>
        <mxCell id="USl1ifPrtfJnEXk17NBj-3" value="" style="shape=image;imageAspect=0;aspect=fixed;verticalLabelPosition=bottom;verticalAlign=top;image=data:image/png,iVBORw0KGgoAAAANSUhEUgAAAoAAAAHACAYAAAAyfdnSAAAABGdBTUEAALGPC/xhBQAAACBjSFJNAAB6JgAAgIQAAPoAAACA6AAAdTAAAOpgAAA6mAAAF3CculE8AAAABmJLR0QA/wD/AP+gvaeTAABkb0lEQVR42u3dd5xU1f3/8de5M7O9wtJhG6CgCIq999gL0ahR2AU1mqqJ6d3k+41JzDdFE83PCixoIpbEErux9y6IImULHRbY3mbmnt8fq0YjZe7szOyU9/PxyCOJ7u7MfM6de9/33FNARERERDKKUQkk7q5dnk1ZUQndnSU4tgjjL8LYIsK2CJ+Tg3FzAbBk49osAHxOFmG3r/9/m/YP/3032DCWPkygHRNuJWy3Ai1AC3OqWlRsERERBUBJlLn1I/E7e+G61eBUAlVgK7FUYhiRoHcRAjYD64APwH6AMR+A8wHdweVcOr5VDSUiIqIAKF49af2saZxK2E7DMXthmQpMBYYl/Xu3bMThPVxeB/MK1n2FOVUNalQREVEAFPmkG1YWk+M7BDgYOAw4AMhPo0+4CXgFY14F92XIfY6akZ1qeBERUQCUzLHo3Sx68g/DciJwAjAFcDKoAr3ACxj7KK7zGA3lb3KlcXVgiIiIAqCkl7qV5eCcjHVOBHssUKCifKwZy+M49hH6/Pdx8bitKomIiCgASmpauGYs4fBZYL8AHKJjISJh4CUwdxLuu50LJ25WSURERAFQktvc+pE4zrlgz6F/TJ/aP3p9GB7DNYvoDd2rGcYiIqIAKMnjSutQ1XQM2EuAM4GAihJzPcD9YG6ktuJxlUNERBQAZXDc0jQav50F9stApQqSMO+BmU/QuUnjBUVERAFQEmN+w8HAFcAMwKeCDJpO4G8Y5xpqypeoHCIiogAosXWldahuOgVrLwOOU0GSigX+hcOvmVX5gsohIiIKgDIwi97NoifvQqz5DjBeBUn6r9szYH9DTcXDGGNVDxERUQCUyD1p/axurMXyEzS+LxW9heV/qa24R0FQREQUAGXnFlkfXU0XYOzPUI9fOngZY79PTdXTKkUKuXn1EHyMwQmXYc0wjC3DmDJwhwI5WKcYrIMlgPnkouqmE2wf1nTiuH1Y0wE2iDUdOGYjrl2Hz12DdddTM2GTCi0iCoACdQ0nY/k/YLKKkXbfwn+B8wNNFkkiC5cXYbOnEQ5PwZhqDFVYqoEqoCQB76AXWA+sBZqwdjGOswTsEmoq69VAIqIAmPYXosY9CPMHsCeoGGnNxZo63ODPuHDCapUjgW5ePYQs91As08FOwzANS1USnx/bgHcxdjHWLMY4L5Ez7k3OMWE1pogoAKa62xpLCbnfB/MtIEsFyRjdYK8mt+sqztmzT+WIgwUNo7DmMHAPw5pDgX0AJ8U/VQfwEtjnwXmO3I5ndPyIiAJgKrHWUNc4B/gdMEQFyVhLsObLzK54XqUYoCetn4aGw3DMycCpZMYwig4MzwGPA/fosbGIKAAms3lN4zHujcAxKoYAFsuthHzf064iHi3aVEBP1+lYewaYz5GYcXvJ7E3gH1hzD7Mr3tUBIiIKgMngSeunsekKjL0SyFVB5L9sBnMFtRULVYqdhb53s+gqPBHcL2I4HchTUbbrAzD3gF1EbeWbKoeIAqAMhnmNe4KtwzBdxZBduAv8X6Z27BaV4lPfoX1x3Euw5mw0bMKr17HmRsLdf+OiSe0qh4gCoMSbtYb5TV/C2D+ingqJ+LhhI3ARsyv/ldF1uHZ5NiVZp2PtJWj7w1joAe4HcyO1FY+rHCIKgBIPc+tH4jNzsZyoYkhUMRD+Qq7v+5wzrjvDvjuV+MxlWGYDpToU4uJN4HpyO+s0k1hEAVBiZV7T6Rj3ZmCYiiED9B6O+0VmVb+d9p90/qqpGOd7WM4F/Gr6hFiDsb+H3JuoGdmpcogoAEo0FlkfXQ1XYcx3VXeJoS4wl6btBJF5q47AON8HTtL3ZtBsxnANYXsdc6paVA4RBUCJ1K3Lh+EL/A04VsWQOPkzPc3f5tL9gmnxaeY27Y/jXoXG9yWTNoy5Duv7vSYiiSgAyq4saJiOy91ApYohcfY8Dl9gVuX61P2+rNod1/kf4Gydn5LWNjC/pbXvT1w2sVflEFEAlP82r34OxvwVyFYxJEHWY80XUm4Hkbn1I3HM/wCz0Ri/VLECw/epqbxHpRBRABT4cDu3hp+D+bmKIYOgD8uFzK68Lenf6ZPWT1PT1zD2F1iK1XQp6WUcrmBW5QsqhYgCYOa6dnk2RYF5GM5TMWQwb0Ow5gfMrrg6ad/h3PqjcMyfgSlqrpTnYk0dIefb2rZQRAEw88xfMxRC/wQOUzEkSWLgdeRVXM45Jpw07+n2dWUE+64BzlcDpd3xthFjvk5txV0qhogCYGaYW1+Jw6NgJqoYkmRf83vpCZzPpaO7Bv2tzGs4C8P1wHC1S1q7B9d+jTlVG1QKEQXA9DV/5W7gfxzsOBVDktRL+M3JXFCxbVBe/fZ1ZQSDfwF7rpoiY2wD+y1qq+arFCIKgOln7uq9MOHHMIxQMSSpWd4g5Ds+4WO05tefAeZG1OuXqR7ChGZTM2GTSiGiAJge5jXui7EPA2UqhqSItwlkHcf5o5vj/krXLs+mxH811nxD55qMtwnHzGRWxWMqhYgCYGpb0HAILg8BRSqGpFwIDAeP58KJm+P2CnNXTsT4/o5husotHwoDv6C+4ldcaVyVQ0QBMPXMa9wXxz6hdcskdb/5djGEj4vLY7l5DRdg+CtQqELLdjxOwJ3J+dUbVQoRBcDUMXf1XjjhJ4GhKoakuCXgPypm+7ousj56Gn+H5VsqrezCelx7PnOqnlIpRBQAUyD8rZyI43saGKViSJqcAl7BZB9DzcjOAf2ZhcuLCAduA05VTSVCIeByaiuvVylEFACTOPzVV+KYZ4GxKoakmQcor5jB0SYU1W/XNUzG2nu1BqZExdqraaj8ocYFiiSWoxJE4ObVQ3DMQwp/kqZOpanxRqz1fkO4oPF4LC8p/EnUjPke1Y2LuGFdnoohogCYPBa9m0UgfCcwScWQNDaHBU2/8vQb8xrOwrX3oZnwMlCWs8gJPsnc+pEqhogCYBKclKyhO38ucIyKIRlwvP+QuoavRRb+6r+F4U4gR4WTGB2AB+CYl6hrmKxaiCgADq75jf+DNqyXjLoGcw1z60/c6U3R/PorMeYPaAyxxF4FlqeYv2qqSiESXzqB78i8xhqM1R6Wkomace3+zKlq+NQ/vdI6VDX+P+BLKpHE2RbgeGor31QpROJDPYDbs2DVNIz9qwohGaoMx9xL3Yb8j/+JtYaqxj8r/EmCDAX+zdz6g1QKEQXAxLh59RCscw+gGWmSyaZie+qw1mCtYUHjdcBXVRZJoBIc8xhz649SKURiT4+AP2mR9dHd9CDYz6kYIoC1P8KYicAcFUMGSQfWPYXZ1c+oFCIKgPExv+FXwI9UCJH/RECdJyQJtAFHaUygiAJg7C1oPB7XPqKaiIgkpc0QPoza8R+oFCIKgLFx+7oygn3voD1+RUSS+Yq1irA9lDlVG1QMkYHRJBCAYPBmhT8RkSRnqcYxjzC3vkTFEFEAHJi6+i+DPUOHgohISpiKY+7h2uXZKoWIAmB05tZPwprf6zAQEUkpR1Piv1FlEFEA9O5K6+CYm9F6fyIiqceaGuY3Xq5CiCgAelPZ9HXgUB0CIiIpmwL/TwtFi0QnM2cB160sx/qWAIU6BEREUtomwqH9uHDCapVCJHKZ2QPoOn9R+BMRSQvD8fnvZdHqXJVCRAFwx+Y1XIAxp6npRUTSxj50h/+iMohELrMeAd/yfiH+nA+AkWp6EZE0Y00tsyvq0voz1m3Ix9ebBUAvpf1XcjcL4+Tjs5agaQEgy9eHCXcCEOjo5Jw9+3SASOYGwPn1vwHzfTW7iEhaXtFa8bnTuKC6MaXe9w0ri8lyqvCZalxbgXGGgx0OZijYMmAoUPbhf6LVCzQDW/r/YzaB3YK1zeCsxUc9oVAD+T2NCosKgOllXtN4jPsuoMVDRUTS19PUVxzDlcZNqne1yProadwN7DRwpmLd8RiqsKb6w4CXLFxgHdbWY5xVwHu47ts4/sXUjlurw0sBMAUDYMM/MJypJhcRSXvfo7byd4P26tcuz6Y4MB3YB2OnAftgzRQg1SeqbAHeBrsYw1sY+yKzqpfpcFMATF51DcdgeULNLSKSEXpx3AOZVf12Yq4xG/Khdx8sh4I9jv41ZjNlVnIb8ArY58F5Dtd9jjlVPToEFQAHn7WG+Y2vYZiu5hYRyZSrm11MS2h/LpvYG/O/fcNrAXLLDsflZBx7BNbsA/hVdAC6gRewPIzfPMjMiqUqiQLg4Khr+DyWu9XUIiIZxvIrZlf+JCZ/6/Z1ZfQFT8a4p2DMCViKVeCINGLNQ2Aewsl6gpqRnSqJAmD8XWkdqhrfBqaoqUVEMk4fjjs16nFqdSvLsf4vgj0dOBDwqaQD0oPlYRx7B+TerzCoABg/8+q/iDG3q5lFRDLW49RWHh/xT8+tL8E4p2PsLOAYMnXHrESEQXgca+7Eyb5bYVABMHYWWR/dje8Cu6uZRUQymT2P2qo7dhL6cvA5p2G5AOxJQJZqllDtwJ249ibmVL2kcigADkxd4yysrVMTi4hkvLWEeiZz0aT2T/3TWxurcdxLMeYikmstvkz2DnATrl3InKoWlUMB0Lv5DW8B09TEIiIC/IHaym9/ODb8BAxfw3ISesSbrLrBLMK4f6Wm6mWVQwEwMgsaj8e1j6p5RUTkQyHgauBcYLzKkVKeA/t/1Ffen3Q7vCgAJpn5jY+A/ZyaV0REJG2sBPNnegI3cenoLpVDAfDT5q7eCyf8Npm0zZ2IiEjm2ARcQ6jnz58Z1ykRS7+xD8a9QuFPREQkbQ0HfoU/ZyV1Dd9m0epclSSKuJRWn+bm1UMIhNcCOWpaERGRjLAJzB9w3Wu0D3Hk0qsHMODOUvgTERHJKMPB/gbHvMe8xhqs1VPACKRXkeY3LAH2VLOKiIhkrNex5nJmVzyvUmRCAJzXeCjGPqcmFRERyXgWuAsT/g4145tUjs9Kp0fAF6s5RUREhP4Ori9gfe8yr/6HXLs8WyX5bIFS38LlRYQD64E8NamIiIj8l/ex5mI9Fv6P9OgBdLPOUPgTERGRHZiEsc9SV38Dt7xfqHKkSwC09hw1pYiIiOyEwZpL8Oe8z/z6M1SMVDe3vgTHbAD0fF9EREQiTEC2jm73Mi4d35qJHz/1ewANMxT+RERExBNrasjxvcOCpsMVAFPyExg9/hUREZFolOO6TzK//jfc8Fogkz54aj8CvmFlMTm+zUBAx7CIiIgMwHP43ZlcUN2YCR82tXsAs33HKfyJiIhIDBxGyHmL+Q0zFACT30k6XkVERCRGSoC7mV//GxZZnwJgsjLmczpWRUREJJbpAsz36W58jFuXD1MATDbzV00FO07HqYiIiMTB0fgCr1HXtJ8CYDKxvhN1bIqIiEgclWPdp5nXmHYrjqTwI2D3OB2XIiIiEmd5GPt35jV+L50+VGouA7PI+uhu3AoU6bgUERGRhLDcQkXFlznahFL9o6RmD2B341SFPxEREUkow0U0Nf2LW94vVAAcnAY4REehiIiIJJ79HP6cfzO3fqQCYMJrz6E6AEVERGSQ7IdjXqCuoUoBMLEUAEVERGQwVWF5igWrJ6Tim0+9SSC3rxpB0Nmg405ERESSwFpcexxzqt5PpTedej2AfUzTsSYiIiJJYgyOeZoFq1Iqn6ReADTOFB1rIiIikkSG4zpPMLd+bwXAuAVAqx5AERERSTZDccyjLGzcQwEwHqyZqmNMREREktAwwvbRVJgdnFoB8EnrBybr+BIREZEkNQbLY9zSNFoBMFbW1I8HsnVsiYiISBIbj999lNvXlSkAxoI1lTqmREREJAXsSaj3QW5Yl6cAOHBVOp5EREQkJVizP7l9i1hkfQqAAyoklTqaREREJIWyyyl0N16tADiwt6sAKCIiIqnmCuoavqYAGD09AhYREZHUY7mGusbTFACjq165jiARERFJQT6svS1ZFopOnQBorQHKdPyIiIhIiiokbP/BDSuLFQAjdXtTCeDXsSMiIiIpbDdy/PM/7NhSANwl1xmqY0ZERERSnz2D+Y3fVgCMRCikx78iIiKSHgy/YUHj8QqAu+IzQ3S0iIiISJrwEbYLmFs/UgFw51FZj4BFREQkfRhG4DNzB2M8YAoFQDdfR4qIiIikFcuJ1DUmfJHoVJoEkqWjRERERNLQ75i7ei8FwO0xNlvHh4iIiKShHJzw7cytz1EA/EwARD2AIiIikq6mYPiFAuB/szagY0NERETSljHfYUHDIQqAn36regQsIiIi6czB5QYWvZsV/xdKGa7RcSEiIiJpbgo9+d9VAPyY6dMxISIiImnP8lPqGiYrAPYL6ogQERGRDJCN5a/xXCA6hSaBmF4dDyIiIpIhjqSucY4CIK56AEVERCST/JobVhZndgB0NAZQREREMspwsp0fZXYAhB4dByIiIpJRjLmceU3jMzcAWrbqKBAREZEMk41xr87cAOg4zToGREREJAN9nvmNx2VmADR2i9pfREREMpO9OpbLwqROAHSD6gEUERGRTLUP8xs/n3kBcNz4rYBV+4uIiEhGMvyCK21MslvqBMCjTQhoVeuLiIhIhtqTqoYvZFYA7LdGbS8iIiKZy/ySRdaXWQHQ2no1vIiIiGSw3ehqPC+zAqCDAqCIiIhkNsNPBzoWMLUCoEuDWl1EREQy3O5UNZyWOQHQpx5AEREREXCuyJwAGFIPoIiIiAjYI6irPzAzAqAvdzngqtFFREQk47nmm9H+qkm5Dzu//gMwE9XqIiIikuHCGCZSU+l5iJyTep/VvK32FhEREcGHy9ei+cUUDIC8o/YWERERAQyzuXZ5dgYEQKsAKCIiItJvKEVZZ6R/AHTRI2ARERGRjxgu8v4rqcZaQ11jMzBELS4iIiKCi2vHM6eqIdJfSL0eQGMs8ILaWkREROTDPGeY4+0XUpGxz6utRURERD7KRuZCFllfegdAnOfU0iIiIiIfG0tP45HpHQBb+l4FetTWIiIiIh9yzRfSOwBeNrEXeE0tLSIiIvIhY8/mSetP3wAIYMyzamkRERGRj5XR1HRUJD/oT9mP6IYfxjg/VFuLSKbIcgxTSwPsOzSbiUU+xuX5GZLtUJLlfLymV3vQpTXo0tARZlVHiJc39/HG1j6CrlUBRTKBcb8APL7LH0vZD7jI+uhu3ITWA5QEOXNcHieNyYnoZ1/f2seNH3SoaDJg2T7DWeV5nFWRywmjc8n3ez9td4YsLzf3Mm9FJwtWdaqoIumtmfKKURxtQukZAAHm198B5hy1tSTCyhmjqS6MrNPctZB722r61OsiUcr3G769RxFfn1TAsBxfTP7m1l6XoXesUXFF0p01xzG74omd/YiT0h/Q8JBaWRIlyxf5/ZJjwO+oZhKdGeV5LJ8xml/sXRyz8Afw8LpuFVckExh74i6vU6n9CcMPAq5aWkTSQcAx/PWgUu45qoxRub6Y//2Fq7pUZJHMkOYBsGbCJjBaDkZEUl6e33Dv0WV8ebfCuPz9Dd1hHlMPoEimmMKtK8albwAEMHaR2llEUpnPwG2HD+WkMblxe42/1XcS0pBUkQw6sfhPSO8A6PjvQI+BRSSF/Wn/Us4clxfX19DjX5GMk+YBcObYNVj7vNpZRFLRmePy+Pqkwri+xrstQd7Y2qdii2SW43a2K0h6zFN0zB1qZxFJNUUBh+sPKo3762jtP5GMVMLq1Xvv6F/60+IjhoKL8AX+lDafR0Qywi/3Lo56tu+mnjBPb+zl5c19bOoJ0xW2+I1hZK7D5GI/hwzLYc+SACFruU0BUCQzWXso8Fr6BsALJ25mfuMTYE9Qa4tIKhib5+Mruxd4/r11XWF++lYrC1d17nKh8ZIsh9IshzVdYRVcJDMT4KHANekbAPtT7k0YFABFJCV8b0oRWY63zZhebu5lxpPNrO+OLNC19Lm09GmOnEgGO3RH/yJ99iqoqLgXWKe2FpFkV+A31I7P9/Q7y9qCnPT45ojDn4gIMJrbVlWkdwA82oSwzFVbi0iyu6C6gKJA5KffjpDltH9vZpt680TEq7BzaHoHQICAexNaE1BEktzMam9r/l21uI3lbSEVTkS8czkk/QPgBdWNwMNqbRFJViNzfRwyLDvin+8MWf66rF2FE5HoGPZO/wB47fJsYKtaW0SS1cljcvEy9+Ox9d2ayCEiAwmAU7DWpG8ArGs8jOLAm8BMtbaIJKtDh2d5+vn7V/eoaCISPUsxt9eX//c/Tv1lYObWl+DjF1j7ddKtR1NE0s5BHh7/WuDBtd0qmogMTMi3F9D4yX+U2oGprvE0HLMEay5T+BORZFeS5TCpKBDxzy9rDbJBy76IyEBZd6///kep2QN48+ohBMI3Ye3n1aoikioOHpbtafzfi5t7VTQRGThj0iAA1jUehg3fBpSrRUUklRxY5m3836tbgiqaiMQgANopqRsAr7QOVU3fwNrfAQG1JgzJ7t/nsyTr00+/W/pcukKWDd1hbAp+Lr+BwoBDcZbzcW9Je9DSFnTpDVs1fLTff/ofQfa6lq5Qatcxx2cYletjSLZDwDEU+A3tQUvI9h8nm3uScwu0vYd4O3W9s61PB67sUmmWQ57fkO0zlAQcWoLux9eCsIXWFJlFXpLlEHItHSGd52POmurUDIAL14wl3HQb2CMyte2GZjucOCaXI4Zns+/QLCYVB8j37/xZUtC1rO8Os6wtxJJtfby1LcgzG3tp6AgN+meZPiSL6sIA4wt9VBf4qS70My7fT4HfkOPb8efa0uuytivEe61BlrSEeGFTLy9u7qVbwRCAooDD4SOyOagsiwlFfiYUBqjI91EUcMj+r7o297o0dIT4oC3I21uDPLWxl9e39JJspfSZ/okTJ4zOYf+hWUwbksWoXN8uf68rZKnvCPFuS5AlLUFe2tzLC5t76RzEi8u0Um89gO+2DG4PYI7PcPCwbA4els1uRT52KwpQnu8nz28oyXIw9E9Uaelz6Q5ZmjpDfNDW/5+Xmnt5YVPqfzezHMO+Q7OYUOinPN9PYeA/36OtvS71HaGP/7OlN75BK9dnOGhYNkeOyGZqaYAJhQEmFPnJ9e38WtAdtqztCrOuK0RjZ5g3twZ5pbmXN7f2JfRmMN9vOGRYNocMz2Lih++9ssBPccD5zHl/W99/zk9LWkI8taGHl5v7CLo610dbfm5fV8b5o5s/2SmQ3OY3HA3cCQzNtNbyGZhRnsfFE/M5blQuvhi1VlNniAfXdvPPph7+vaEn7l+owoDDsSNzOGZUNseOymGP4th24PaELY+v7+Fv9V38o6krbhec1WePYWyeL/Jv2+2rE3JyHZrtMLM6n/Or8th3aPaAjpPWPpd7V3dTt6qTJzf0MJjn2gmFfi7drYBZ4/MZkeOLyd8MupaXmvu4t6mbf67uYmV7bG6GjhyRw9xDh3ymN357PRyRNs9HwSpSYds/ZvD0f28ecOg7qyKPmuo8Dh+Rs8twsavv5vObeqlb1cmdDV1xD4OlWQ6vnjKS8YW77tvY3BPmyEc28V7rZ0N2wDGcMS6X2ePzOWpkzi5vtj8+R3SGeG5TL39v6OK+1bGZvZ3tM5w6tv+9HD8q5zM3cgMRsv29zA+v7ebe1T282twb86dGRQGH86rymFmdz0FlWQSc6N9/Z8jyrzX956dH1najjkKPXOcA5pS/mhoBsK7xS1h7HRn4yPfcynx+uXcRuxXF96Nv6gmzYFUnN37QyQdtsettyPEZTh6Ty/lVeZwyNnenvXqxtLEnzDXvdXDte20x7+lJtgBYXejn51OLObcyL6YXhY+sbA/xP++0sXBVR0J7Bcfm+fjffYq5oLoAfxwPGws8t6mXm5d3cEdD14CGFyw6sowvVOQN+nmjtc+l5O9rog5P35tSyKW7FVKaFftFFVr6XG5e3sFvl7TRHKeesgPLsnnp5BER/3zt81uoW9n58f/PcgwXTSzgh1MKGZcf/QOy5l6XYXesGdBnKQw4XDapkG/uUUhZdmIWuVjXFebCF7byyLqBh9fReT5+slcRNeMLIg7QXqztCvPrxW3ctLyDPvUKRsaYc6ipuDO5A+Ai66O74Vdgvp9p7TMmz8cthwzhhNG5ib0xsPCPpi6uWtzGG1v7BvT+r9ijkIsmFFCcNXgr8zR1hrjslRbuXd2VdgGwJMvhf/Yu5pLdCshy4v8VfqW5l9rnt/J+a/wfR355t0J+u28xRYHEHjvru8P8cWk71y9rj+rGYdmZo+J+sxaJ5zb1cvjDGz39jt/At/cs4gdTinbZgxkLbUGX373bztVL2mJ+4T5oWDYvnhR5AJz9/Fbmr+wA4JBh2dx48BD2LBl4O962qpOZz22J6nd9Br4xqYifTC1iaHbiz6G/WtzKT95sjfr38/yGn04t4rJJReT5439+erclSO3zW3h9i8bLRuB71Fb+7qP/k3xr5y1cXkRP472ZGP4OG57N66eOTHj4A3AMnFWRx6unjKTusKERjbH675PW9/YsYvmM0VyxR9Gghj+A8nw//zy6jD/tXzqgRw7J5vhRObxz2ki+PqkwIeEP4ICybN44dSTnVebH7TWyfYa6w4by14NKEx7+AEbl+rh63xKWnTmamvHePmeuzzC+MDkeUnidNLJHcYAXTx7Jb6aXJCT8Qf8jwf/Zu5hXThnBVI9jImPeIfLRVXHPIp45cURMwh/AwvrobjynlAR4/qQR/HH/kkEJfwB3N0bf+3fQsGzePHUkP5hSnJDwB7BnSYAXTxrBV3cvVLzbtcpPXfeT6q3NaxpPOPAqllMyrVVOHJPLo8cPj9lYp4EEwVnV+Txz4ghP3cPfnFzEb/ctGdB4oXi4fHIhdx1ZlrCwFM8L1f/sXcwjxw8f0KOpaOX6DLcfMZSfTi2O+d/O8xvuPbqMWdX5g17nMXk+5h86lNrxBRH/zl6lWSTLYb94W+RjGs+rzOf1U0ey39DBCWHTSrN45eQRg97u1x9Yym/3LYlZG27sCfN4FI9QL6jO55VTRnJgWfag1WJJS5A3o3wC9M3JRTx34ohB6QkPOIbrDizlmv1LSaP7/XhcSCqSMwDWNUzGuE8Du2Vam+xflsU9R5UlVXhywNNg4GTerP70cbksOGwoqXpeyP4wfP1kavGgfgYD/HLvYn49PXYh0DGw4LChg9LrvTOujfzon1qaPEOUF7dEdvH+6dRibj9iaMLG5u7s2J5/2FB+sXfxoLz+N/co4Csx7jn6e32Xp8kJBvjt9BIWHjZ00K8BC1d1ev4dn4HrDizlj/uXDPqN0GWTC7nx4CEKgTtizbDkC4ALGqZjeRoYk2ntMSTb4Z9HDUu6nrOF9d5OBHc3ddGTxMs9nFOZx2WTU+8Rgc/A3w4fGtfHr179YEoxV04rjtnf+nx5XlLVvDNk+aeHGZx7lSRHALTA4m27Hqf506nF/HLv4qS5ITLAzz58T4k2LQ6PoG/zeO784/6lfG9KURLc9MDtHh9dG+CvBw1JqsevF00o4C8HlCrsbf8sMTS5AuCCpsOx/BsYlonNce3+pYzO8yXXIQKfmhkXiZY+N6YTLuLh19NLqMhPrc1vbjp4CDOSLCAB/GxaMWcPcNbrlJIAP59WlHSf7Z6mLtqDkfdoJ0sPYENHiLZdvO+v7F44KEErEj+dWsw3JxeRypa1BXm1OfJHqL/ap5jLk+TG9OmNPazu9LYs0lXTi/nSxIKka4ev7F4Y857dNPGpADi4V8O6hmNw3XuBgkxsif2GZnH+AMa/rO4M8X5b6OPHrwEHyrJ9jM3zMSbPF/Xkh+c29Ua1Ptr8lV2cm0Q9Vf8t12e4anoxFzy7JSWOj6/tXsicCQP/amzpdWns7D9OHPpnEVcV+Ac0UccANx88hBc297KuKxzV3/jN9JKox2Z2hy1vb+1jXXeYtqBLvt8h2zGMzvMxLt83oLG0Xm9+pgzyRIaP7Kr37+Bh2Vyzf0lSH/O/26+E17f08uym1NwDeeGqyG+Cz63M50d7Fafkewc4uyKPH0wZ+Ptv+XDB55Y+F/fD81Nlvp8hA5wE88f9SnhyQ09CVi9IIcVcaR2uNO7gBsB5DadguQfIytSW+PHUIs+PYbb1uVz7XjvzVnbudEePbJ9hammA/YZms+/QAPsPzWKv0qyIXm/+is6oPs+j67pZ1xWOqEezz7W8tbWPxS1BlraEaOgIsaE7zLruMBu6wx8/Ti7OcijwGyoL/EwtzeLAsgBnjMuLesbiuZX5/PCNVpo6Q0l9bOwzJIvf7xf9xfqZjT3MX9nFI+u6WbuDgDah0M/JY3O5dLeCqBbnLs5yuO7AUmY82RzV5ztlrPdxf4+t7+Ha99p5ZN3OFzAfluNjv6FZ7Ds0i/2GBjh4WDbDIwiFa7rC/HtDj6f3tLknnLB12nYk6Frm7yS4lmY5/P2IoQOaEf/8pl4eWtvDS829rGgL0Rrs326vOMuhKOAwsdDPAWXZnDgmmyNG5ET1iNlv4PYjytj7/vVx31Uj1nrClgUR3jxMLg5w8yFDBvyaS1uDPL6uh1e29LGiLcSmnvDHHQLZPkOe35DnM4zL9zMy18fEQh/ThmQxrTSLMZ84T3eHLXc3RR4Aqwv93Hxw9O//tS193LK8k0fWdVO/g+tYeb6fk8bk8qWJ+ewbxUSlbJ/hpoOHcOQjG9EygZ+4d99jTTbQ/dGNfOItaDgEl0eB/ExthVG5PprOHuNpodsnN/Rw/rNb2NAdXY/LuHw/M8pz+Xx5LocNz9nugN2ukGXUnWt3+ShpR67et4Tv7rn9xzjL24Lc1djFExv6t2+Ldo28HJ/h8+V5/Hp6MeVRPNK9anErP45inatErQPoM/DqKSPZZ4j3k97ibUG++vJWnvPQg2KAmdX5/GH/0qiCzPGPbeLx9d5C03UHlnoaN9TnWr704lbPvXOfrOmhw3P4fHkuM8pzd3jc/GZJKz98w/uxsasdPm4/fCgnjok88O5573rWe/ied4ftTsfgXn9gadSPxB5Y082P3myJaHzhR3YvCvDLvYv5QmVeVBeZm5d38KUXt3r+Pa/rAEbileZe/r2hh5c3B3m3tY9tvS5b+1wKAw6jcn2MzPUxpSTAB20hHo1g9q9j4NkTR3DIsOhm+4Yt3F7fyZ+Wtg9ozdbxhX6OH5XLsaOy+feGXv66rD3ym/3jh3P8qBzPr7miPcRlr2zjobXeZkmfOS6PPx9Y6un8+5GZz23htlWdyMd3WUO4oGLb4ATAeY37Yuy/gaJMboNLdivghoOGeDoJHfXIpphtpTQ8x8dFEwu4bFIBIz+x5t9AFjCF/jWZlpw+6uP/3xmy3Lqig3krOgd0stqePL/h+gNLPS3ZAf3jdCb9c33SBsAv71bIXw/yPoj5tlWdXPzi1qgn41Tk+7n/mGHs5XFM2wubezn0ocgXHzbA2i+M8bTW5DlPN3NnY2zGmBrgkOHZfGtyITPK8z41Y3CPe9dvd2uwgar//GgqCyK7Wdna6zJ0gLtIfNLeQ7J47ZSRnmdo9oQtX35p28cLJUdjRnke8w4d4nltR9fCQQ9t8DSeLtYB8J+ru/jZW62egm88v9/Qv87jrOe2el7vMZZmlOdxz1Flnn/vX2u6Of/ZLVF3LgzL8fGPo8o4dLi34PxBW5A97l2Ptov/6A6E0cyqXN//PxNp7sqJYP+V6eEP4NiR3u6eLnlxW0z30dzUE+bXi1upvGcdl7y4lWVtQVwLN3zQMaC/+25LkCfW97C11+UXb7dSefdaLntlW8zDH/T3Vl74wlYWeLy7270owMSi5JwMkuc3/HJv71+PupWd1Dy/ZUAzsRs7Qxz72CaWedwS8JBh2Rzj4XieVBzwFP4eWNMds/AH/ZOcnt/Uy9lPNzPp3nXc8EE7XSHLUxt64hL+igIOFQWRH2+RLuUSqav2KfYc/nrDlhlPNQ8o/EH/7kKfe2yz54u+Y+CqfUoG5TvYEbKc+0wzM55sjnn4y4/y+w1wZ2MXBzy4cVDDn8/0P+WJJvzNeKo56vAH/UMtTnpis+ebgt2KApxTmbEPG7dzB+z3/ScLJsqtK8bh+B7DMEItgKdelje29vF2nL70vWHLTcs7mPzP9YxYtCYmg69PeHwTo+9ay5Vvt8Ztz89P9hR89aWtnh6X9YeWnKQ8Li6cUMAwjxMYXt/SxyUvbY3JOJfNPWFmPNnseTu0Wg+7Z3jd/WHeyvg9vlneFuLLL21j2KI1fO7xzXF5jamlAU+PWmIZOvYqDXh69PyRK15r4eG13TF5Dy8391Lz3Fa8Hp7Hjcph+pDEDhFvC7oc8+hGFjXEZ0WDr+5e6Pn7DXBXYxfnPdM8oP2qY+GsijwmFHq7eV7RHuL8Z7fsdMxupNqDLjOe2uz5ulI7PvlWUhg0PX0JDoA3rx6Cz/84fHoV6owN4ODpS/RuS/xnMVmIWVgLWxJ6ouoIWW702HM5fUgg6Y4Ln4Er9ij0XOs5L2yJab3faw3yy7e9jYObUZ4b8dZPXi8gSxNw/HeFbEwuULEIvItj+Hmv2KPQ8zifx9b3cL2H8WCRuHd1F7eu6Ijq/SeKa+Hsp5o99zBFKssxfHtP75/nnW191D6/JSkmMnxnD++9l196ceuAev7+29quMN95rcXjzUTuoO+ylTRyfQkMgIusj0B4IRm4w8eO5PtNWu1Pmwye8DgJYXJJ8gXAI0bkUFXgLRzdtLw95o+pAP78fvsOZw9vT2HAiXg3j+Isb8d+qn9T9ir11qbvxKg9c32GszyuIela+OYr2+JShx++0eppfcX+G4s8ChK0p+w177XxmMfziBenjvUeQvpcy6zntkY9YS6W9iwJsH+Zt5uZe5q6eGpD7Gu6cFUHSzzcKPlM/2YAAriOk7gA2N34R+AkVf0TJ2a/t7In01ZTyeqVLX2eesHG5SXf3eC5ld4e1bkWfrukPT5f27Dl5uXeemwOHx7ZxcHrrjfThqT2SlF7lUT+/i2x6/E8ZWwuhR4nX/xzdRdL47Ru2uaeMDd6PKby/IYzErAQ+tZel1+80xbX15gzwfs4tOuXtQ/qmL9POi+KAPXrxfGpadjC9cs8np9GZCMAToJ6AOvqZwPfUME/rSvk7S54WmlW0u2Vmmx6w5Y1HnqsxiRZAHQMnrdEe2Rd907Xghwor+OgDh8R2bhKr5OZvrtnYcru7WnwNt43kt08IjWj3Ps545bl8V0u46YPvP/9U8fGf7zute+30RrH/cyLAg4njPb2OTpDlv+Ncyj14iyPO/+8vqWP17bEL7ze3djlaWbvYcMVAPtPSqEEBMB5jYdizQ2q9vYCoPfxRvMOHcLkYvUE7kyLhxN4vt9JqkeLU0uzPA8Ov6OhO67vaWlr0NPWUNNKAxHt7LGtz9uxv8+QLG44KDU3eK8s8HtaAiVWvT0GONrjSgPtQZcnNvTEtR7L2oKeexiPHBHfABi28Q++x47K8TzsZ97KjqRZDHt0ns/z9eeOhvhuDbqpJ8ybHlaXGJXri2odwbQTjHcAXLhmLNi7yeBdPnbGAh+0eeu5GZnr49kTRyT1VmuDrdVDz4lj+leKTxZeL9aW/h7AeHvdwwk24BjGRzDBY1kUjxgvnljAA8cMS7qe20iCvRexGs/pdakdgIfW9iRk8tY/mrwFg1G5PnYvit/N76vNvZ6eHkTjxNHeQ+yty5Nn8WKv56f+4ykB56ctvZ6/FxnP+N34BcArrUM4NF/LvexcNOviDc3u387p0eOHR72KfLLL9RlG5fbfbe774VZeuxUFqC70MybPR2mWs8M1zbwOlE6mAHjIMG9B4d2WYNQ7wnjx9lZvgSSSC3W0a0KeNCaXpWeM4pd7F1Oa5aTE8ex1/G6sZgAfUOb9/PDg2p6E1OSBNT1RfJ749SXEc+LHRw7y+P1e0R6Ky9qp0TrU4/vf1BP2NEkjWu9s89aREs8biZRh3Y8vHLFfDbeq8cfAMaryLk62a3qYVR1db97xo3I4flQOL27u5cYPOrmzsdPzum2DbWSuj8OGZ3PIsCz2LAkwqTjAiBxfRKFsW59LU2eIps4wDR39/93UGRr0/VgHwuvuG28m6OLQ1OktZEay20VDR4ilrcGo9h8uCjj8dGox39qjiL/Xd3LT8k5eae5Nm3aNVQ/glBLvp/ZETTZYvK0P1+Lpkf6UOM7af31LfINKjs94fnz6aAJ69z0dTx57shN3fvIWACsK9AgYx3XjEwDnNu0P7k9V4V27f00X2/pKB9STcfCwbA4els11B5bywJpu7mjo4qG13THdMSSWxuX7qanOZ0Z5LtOHZkU9Bq80y6E0K4tppelxLOT4DBMKvV0gWvvcqDZI9yrf4xIcw3Ii+/n5Kzr5bRQ7CnykwG+4eGIBF08sYEV7iEUNndzR0J00MyY/DoAegktv2LK8LVYB0Nvx5Fo87wATrc6QpbEz5GnJoylxXAnhvdb4fu49SwKex/89szF1j2OA5p7EnJ+KPV4/h+ekbidBzMSlB3DRpgK6O28Doz7WCE+C173fzk+mFg/4b+X5DedU5nFOZR7tQZf7Vndzd1M3DydJGNxvaBY/nlrEaWPz8Gn5w8+oLvB7rsvXJxXy9UmFSfdZIp3IctPyDn6wV1FMHuVOKPTzo72K+dFexbzXGuTOxi7ubhz8MJjrM0z08MhpaWuQWHXkV3pcT7KhI5TQteaWtgQ9BUCv62N6Cb6r2uMbAKN578l0IzMsx0eJx+/pBdX5XFCdfOPVh2kxaLD+jwNg7OJwT9f/AzNR1Y3cb5a0eZplGYnCgMMF1fncc1QZm84dy9+OGMpZFXnkDELyGpvn464jy3jllJGcOS75wl+yvJ3RaTQzLS/CRt7W5/KTN1tj/vqTiwP8bGoxb582kmVnjuJX+xQzrXRw5qLtWRLwdMzHckFvr8fU8vZgQmvj9fW8TmiJ1NY+l3jn3nH53gJg2BKznuCYHEu5mXd+Sms5WTEOgHX152G5QJX1pjNkY7ZH4vYU+A3nVeZz15FlrPvCGK49oNTzrMRo1Y4vYMnpozirIg995TInAGZ5OMH+dVk7962O31in3YoC/GivYt46bSSvnzqSr+xe6PmR0UAM1hZwBX7jaekZ8LaEUix4fb2SLCfirQa92NQT/4lUY/O8tUVbMP6hVOenTBaOYQC8YWUx1vxeRY3Oc5t6ufjFrXHf57E0y+Ebkwp5+7SRPH3CcI4fFZ+1tfwGrjuwlHmHDknoxTaVDc1OnxNs2EZ+IFtg1nNbeDkBkzimD8ni+gNLWXv2GH6/X0ncepQ+yesWcLHqASyK4nvXkeDE0RHFRy0OOHF4H/EPvl7D+LYkWfvvP+en9DmPhy3S5/TGLgDm+H8LjFZVo1e3spOZz22hJ0FH5xEjcnj0+OG8eNIIjojhIqt+A7cdXsZXdy9Uo3r5CqXRXWl70Nsx3BZ0OeHxzTy+PjFLkOT7DVfsUcSqz4/mmv1LPY9t8hQAS7z2APYN2vHUEUzslbE95CbF9yQRWcvr1octweQKgOl1fnLJeMbfE5sAWFd/INgvqaID97f6Tg5/eGNMxwHtykHDsnnqhOFcf2Cp57vU7fl/Bw/RhttRnWDT57NEc4Jt7XM56fFN/PKdVvpcm6CaGy6bXMi7p4/i9HHx2WbRyxIwW3td1sVoMeKcKLZM6Qi5CT5OvLdzbjwCYAJuur0GqEQ/jlcAzDDj3otBD+CT1v/hVm96zhcjr23pY99/beAnb7YmrDfQAF/ZvZDFp4+MavHYj1y6WyEXTShQI0YhnYaltPZFd9yGLPz8rVamP7CBFzcnbl2/0Xk+7j16GPMOHRLTC92oXB/DPST7WM76tFGeBxIpmm394nFGTMRZ1uup3CbZY8p0Oj+1BTP+GXAnRx/98czT6OfWNzZ8F2Om6fIdW0HX8qvFrdSt6uSKPQr40sRCz2uxRaM8389TJwznC08386813gbmV+T7+cN+JQP8Yrq8uLmX17b0saItzKqOEJ0hlz7XEnKhIGAoDjgUBhwK/IbSbIfKfB/l+X7K8/1UFHi74A7GRW9HEjAOPWHWDrAX692WIIc+tJHTx+Xx/SmFHJygHW9qxxcwvjDAyU9sjkkvwWBNAOk/nrxf5Ar8ib2PL4zi9bpTdACX1/bITrLElV7npxAZbssn/090AXD+6jEQ/oniWvys7gzxrVdb+N932rh0t0Jqx+exW5y3scn1Ge4+soyTntjMkx42hf/D/iVRz9B7aG031y3r4LF1PQN+/PfQscM4cUxuyrV1NBfs9jjOFPQZohoSsLYrzL83DHwsnwXuXd3Fvau7OHJEDpfsls+Z4/LiMgv0kw4bns0Dx5Rx/GObB3wsTh2kHUCiDoCBxIaOaF6vJ0MCYIHfpPT7h/5JRfFa3cJAVGN3t/S6CdvuML0DIOErAQ32SkRr9bpctbiVqxa3cmBZNjOr8zhjXK7ntaW83H0uOrKM6Q9siGiNwiklAWaUez8U3trax5de3MprW/oyvo2jGYA/46lmnlif/iezpzf28PTGHgoD2zirPI9zKnM5ZmRO3HpJjhiRwx/2L+HrL28b0N/Za5D2AIboxpAlvAfQYwC0JN/YuHi1x8gkW3cvmvGhX395G/NXdugCnuQB0Pu3fm79JGC26ph4Lzf38o1XtlF+9zqmP7CBK99uicuei2XZDn85ILJ91i6fXOj5Ueoj67o5/OGNCn8fWt/t/RnLqNzMWtG+Pegyb2UHJz+xmbI71nD2083UrexkaxymcX5190IOHz6wR89ets6y9D/6jpXusGWbx9BRmuClPoZkeV8aJVV7ANd4HBYxPMdHlpM8vYDRTE7KtPNTyrBmzcACoMNvifUewuLZm1v7+MXbbUx/YAOVd6/jitdaeG5Tb8zWEzx9XC6H7uIi6DNwhscZlG9t7eO0fzcnfN2xZBbNuJSRGXyC7QhZ7m7sovb5LYxYtIbjH9vE9cvaowrS22OAq6aXRP37ftO/I0mk6ttDMZ+d6PWivVtRYk/puxd76yFd1526A9G8BkDHwKTi5NlRNZpxvSNzNTc0KRkaog+AdY2HgTldVUwujZ0h/ri0jcMf3siYu9bytZe38WrzwHvXLtvFXrP7Dc32tLeiBS55aWvcxoakqqbOaO6wdYKF/tnDj6/v4Wsvb2PsXWs59KGN/Pn9ds89YP/tsOHZTB8S3a45k4oDnh5Rx2r9v09a1eHtpqI835/QsWd7egw4K9uDKXuM1nd4v8HzOoY0ntZ3hz2fs9UDmKzcAQRAa3+jAia3Dd1hrl/WzgEPbmCfBzZwR0Nn1L2Cp4zN3enaW/t4vEC+1twXk2Cabjb1hNnocardPkOyVLj/PrVZeGFzL5e9so3Rd67lkhe3sqo9+ll/Z1VEN6HI6wzgd+Kw9udij8vKGBLX61SS5XjeXmxJS+oGwKUtQc+Tio4ckZ007z/oWt5v9fY92mdIAElC1tZHFwDnNZwCHKoKpo63tvZx3jNb2P9fG6JaZyzfb9hv6I4vZnuWeHtsdG8c932NhkmiyXZvexzLedCw7KRbLiKZ9IQtNy3vYNK96/npW9EtMH1klLvkDNYWcJ8OTN6D794JuqmI5uZlybbUXb6jz7Us9RhgPzc6J6n2UPd6/ZhYFEirPYTThmMboguA2O+reqnpja19HPDgRh5e6z2A7bWT3owRHrv5l6fwY5x48zohJtdnOLAsW4WLoPfif99p5aTHN9PlcdzplJLoejEGcw3Aj7wUxWLap4zNSUibnD7O++u81Nyb0seh1/2uy/P9uxyDndjzk/dj9MgROUhynQ7JqV7rPQDW1R+IMYerfqmrN2z5/FPNNHgcjzI8Z8eHSKHHMUMbu7UNz448vt77Be7UsTrBRurfG3q4/FVvS7sUZzlR7Q7iZQZwb9iyoi32AbC+I+T5u/65UblxX2sR4Mxx3paNaojisySbh9d6/35fPDE/ad7/Exu8dx6cpvNTcjGs5hwT9h4Arfmeqpf6usOWq99t9/Q7RTtZryvgcamCkNXkjx15YXOv5x6q2vH5abVPZ7zNXdHheUam1wWxS7IcxnpYo/Pd1mDcFvT2uih3nt9w/Kj4LqS+z5AsKgu8PSJ/ckPqr3f5xAbvC92fX5VPdWFyLLixZFuQDR5nYn++PM/z7kwSR5al//2Pdn12u7WxGjhD1UsPr3p8FLGz1Sk6PV65olm9PVP0hi0PeXxEPzzHx9d2L1TxIhS2eF430+vsx2mlWZ7Gbi3eFr9JUfc0ee+1+VKce52+vJv3/cLvbupO+WOvPejy6DpvQTbgmAFvsRm77NC/O48X2T7DD/fS+SlpGLPYewD08T1AMT4OCvwm4Qt+et0Me2fr9bV5XLtsUpFmhu3MglVdnn/nZ9OKqMhPzWU58wdhyyuv6+15Xa/S+xZw8Xu0+ei6HrZ4XCj75LG5cZsMMi7fT814bwFzS6/34JSsblne6fl3zhiXR+34gqR4/3UrvZ+fvrZ7YdTLKUmMua7HAHjr8mFga1S52Mv1GZaeMYqGs0ZzXmXixnpU5HvL8jtbBNTr+lafG61JCzvz0NpuNvV4f0S56MihCRm7FUtf3b2QjvPHcdeRZYxJ4GxBL2F5Y4/39c8Gcwu4/xZ0LX+r9xY6DHDN/iVxmYF69b7Fnocs3LaqM23WDf3X2m7Pj1EB/t9BpRyWBBNCXtzcywcex6sGHMPfjxhKWbae/gw661/iLQD6AzVArioXe2eMy2Ncvp9RuT7+dsRQHjx2GLsloIfsZI8Dc5fv5Au/vM1bADxuVK7nGZLxlGyRqc+1/N7jGE2AA8qy+efRwygMpM5J9rLJ/b0aZ1XksfSMUVw+udDzmFKvhuX4OKAsy8Ox7713bq8Srz2A8V0X80/vteN1B7UjRuTwrT2KYvo+LqjO93yjG7L97z9dBF3L76L4fuf4DA8dN5zjRw3upAoL/GaJ9/c/sSjAw8cNZ4TGAw7q5YX8tmXeAqBFvX9xckH1p2fCnTQmlyWnj+RP+5cyJE53S6PzfMzx8Dgh6Fre2MmYqRc8LjXhGKg7bEhCdxxINdcva2dzj/deguNH5fD8iSM890BFa2yeL+p1CPcvy2L3T9zsFAUc/rR/KYtPH8lpY+N3v/n9Kd5C5ktRHN9TPNzgbOl1Y7Z93Y6sbA9xd6P3R3e/mV7sebbujhw9MoebDh7i+ffuauyMaheNZPbXKLcsLPAbHjxuOD+ZWsxgnj4XrOxgZRSLq+87NIuXTh6RsJ7Mkbm+QRliksTe55w9+yIPgPNXHQBMVd3i0xNxwujP3s0FHMPlkwtZNWM0v9u3hPIYju3K8xtuO2woxR4mYrzc3LfTiR4r270vzzCtNIunTxyhrYJ2oCNk+elbbVH97l6lAV47ZSR/2K8kLrPvRuf5+MakQl47ZSSrzx7D348YGtXfmVm1/Z6g3YsC3HfMMF46eQTnVubH9EJ35rg8vjnZW6/Wvzd4C4DVBd62U3tnW2J2xfnxmy30euwGDDiGO44cylcGOMmoZnw+DxwzbKc7Cm1PT9jykzdb0+773T2Az+U38D97F/P26aM4c1wesegwDziGk8bk8p09iyJqo5CF773eEtVrVRb4eeqEEdxyyJCYXts+MjTb4cIJBTxz4gjWfWEMT35uhC4oHzEs3u4xtePf8F3Y3+krsXZuZd5OeyKKsxy+s2cR39yjiAfWdPH3+m4eWNPledbtRyYW+Zl36FAOGebt7uuOhl33HCxc1clPphZ7+rvTh2Tx1mkjuWpxG3NXdHqeTLI9+X5DfiA9xpnc+EE751flckQUC6lmOYZv7VHEV3cv5K7GLu5u6uaxdd2eJzNAfy/fHiVZHDIsi1PH5jJ96KdnuJ42No/ReT7WeVhaxW/gvKqd9ywdWJbN34/IZnVnMQtXdbKosZu3tkYXlnwGLp9cxG+mF+MlgzT3ujyx3tvkA88LQG9LzMLoK9pD/H5pGz/aq9jzsXT9gaXMKM/lh2+08LqHxcqnlAS4anpJ1D26//duW1Q9Talg7ooOLqjO45iR0T3S3aM4wD+OLmNVe4g7Gjq5f00Pb2ztizjkjy/0c8iwbI4Ykc2Z5Xkfj8/zGfjtkl3ffN7T1MXdjV2cVZEX1ffxwgkF1Iwv4IE1XdxR380j67qj2rt7eI6PKSUBDijL5tSxORw0LPtT3/H9y7LYd2iWp+M2jb24/Vy4PYtW59IdXgeUqG6x99LJIzzv4tAVsjyzsYdnNvXx0uZeVrSHWNsV2uE+v34D+5dlc+GEfGZWe18vrjNkqbh77S5nEZbn+1kxY1TU47fagi73ru7msXX9J7FlO1kXLd9vGJ3nY0yen/EFfsYX+phYFGBaaYDxhQHPd8Rld6zxNEty9dljGOthwkL+7as9r+33kQmFfl49ZWRMls4J2/79SBe39NHUGaK5x9Ie+s/nzvUZ8v0OZdmGodk+xhf62bMkENFrf/u1Fv6wNPIey5PG5PLgscM8f4ZV7SGe2tjD0xt7WdoSZGV7aKcXjbF5Ps4sz+MruxewRxR73P5haRvffs1bT8eV04r5+bTIQ9aXXtzKzcs7EnLOyfMbXj55ZNS7m0D/bjUPrOnihU19LG8PsbXXpS3oUhhwKM1ymFjk56CybE4Zm8PBw6J/1Ld4W5ADH9xAd9j7d+egYdm8eFLkPT+Pre/hc49tSvg1YHyhn9dPGenpiczO9LmWZa0hGjpDbOoJ0xe2+IzB5/QPsSjJchib52Nc/o57qd9rDbLHvesjer0ROT7eOHVkTLZ7cy180BbknW1BmjpDbOpxaf1Ep0COz5DncyjLMQzNdqjI97NXaVZEE0v+uLSNKzx+j9OSa/dhTtVbkfUA9rhnK/zFx8Qif1RbeOX5DSeOyeXEMf+5o+4NW1Z1hFjbFaYnbOkOWwr9hmE5PvYoCXh+7PJJ173fHlE4auoM8ddlHVw2ObpHRUUBh1nV+cyqzv84rDT3hmnucekJW4qzHPym/24vL4PGdKxoD/HFZ7fwwDHDGOhazz7T/3g4HuMDL6jO8xQAZ1ZHN66sutBPdWEBF074zxjWLb0uK9uDtAUtvWGLBYZ8eIEYyMzirlB0g/U9zwDelritEbtClnOfbuaVU0ZGPTZqv6FZO90bPBY6Q5Zzn2mOKvylkpXtIWY+t4V7jx4Wk0e5WY4Z8Hd8cnEg4h6zjT1hznxqM0+fMGJA1xnoHzs7qTjApOLYn5/Oq8rnu6+3EM7sh5kdVFYu2W5H0XZ/3HKBolp8XFAVuyVfsn2GycUBJsf4i7OuK8yvl0R+Uf/FO62cVZEXk+U8fKb/7lIzxuDhtd1c/so2/nxgKckafacPyWJycYD3WncdZvL9hjNiNLEA+sf8DM2O/aDy/13cFtVyHV5mALsW3m1J7KOppa1Bap/fwh1HlJGMG8iELdQ+vyWiYykdPLCmmx++0cJv902evpZZ1fkRPzJ9tbmPmue28LcjykjWe/NRuT6OHpnD4+t7yGAvc7TZ7niKz/ahLlxeBPZoRbX4OHhYci+K6Vq49KWttHgYk7G112Xmc1vitqVVvKRCf+J1y9r5ykvbSOal0C6IsFdvcnEg6Wfmvdzcy++WeB+kn+83jC+MPADWd4SiGpc5UHc3dnHJi1uTbnS3pf+ReDQzllPZ1e+2JdVkly9W5XkKc3c1dnHO082et7lLpGifOqQP+9yO/s1nA6DrPxnQ0t1x8st32pJ6aYOfvdXKA2u8b7301IYeLnphC67mDcXcDR+088Vnmz3vYpEo51flRxSm39jaxx+WtiXt45g1XWE+/1RzVDcyU0qyPD3KW9wyeAPTb13RwezntyTNRbs3bKl9bgtzV3Rk5Pf7V4tbueK1lqS4gR6e4+OEMd4m7vyjqYuTn9gc1fJViTCjPG/Aj6lTmuM8H3kAtOY0XXLj5/lNvex133r+7922pLtr+vXiVn61OPq70bqVndQ+v4WesFJgrC1q6GK/f23k7W3JN6OtqsDPARGMa3Vt/6SRQx7ayGtJNjNvdWeIYx7d6GlG8ydNTeLxfzv6rh7/2OBftDf3hDn+sU0sWNWZ0d/vPy5t47hHN8V9XchIRNNj9sT6HvZ5YAPPbEy+R61FAYeTxmTsfhZBTN/LkQXAG14LACfrchtfnSHLd19vYcp967m7sWvQe816w5avvbyNH8XgUcTCVZ0c+cgmlrUl9zietqDreV/kwfZBW5AD/rWR773eknS9gV5mM77S3MuBD25gzvNbk6I3/MXNvRzy0Maodv74yF4pFgABntnYw5T7NnBP0+A8dr27sYsp923g2U29CDy9sYdp92/glhUdg3pNOGNcXlQT7tZ2hTn60U1c+tLWpOsNLApk7FZ0LzBzYltkATBv2FFo9m/CLG8LcfbTzUy9fz23reoclB7BV5v7OPihjVy/LHZbLr3S3Mve92/g52+10tqXPEGlLejyrzXdfPf1FvZ5YENSj1vZkT7X8rt329j9n+v58/vtgzKO7CMW+Neabg5/eCOPrvM2bMC1MG9lB7v9Yx2zn9/Kuy2JD0TdYcvP3mrlyEc2saZrYBcsrz2A72xLjhukTT1hznqqmbOeak7Y5Iv3WoPMeLKZs59u9rz3dbrb3BPm4he2ctBDG3hkXfegjNVs6XPxmegemboWbvygg93/uZ5fL26Nan2/WIfqk5/YzLyVmTm8AGsf2dm//nQrz2v4C4av6Ws4OEbk+JgzoYDa8XlxmRL/Se+3Bvn1kjYWruqM691mSZbDJRMLmD0hP+azlXdmS6/LG1v7eGNLH29uDfLG1l5WtIUGdEJdMWM04wsjW8E+bCHvttVxD5mlWQ6X7FbArOp89ixJTH3f3tbHP5q6WNTQHdPQcPjwbC7ZrYAzxuXGdV/jPtcyf2Unv14cm/G4Bmg+d2zEWzj2hC2Ft69OuklTPgMzqwv4+qSCuCz38vqWPv78fgcLV3XEbRzoxCI/y84cHfEEr7/Vd3L+s1uS9pqwZ0mAb0wq4OyKfIZmx+870dLnct/qbu5q7OLR9T2ed47ZkXy/+fCalh/3JYQ+8kFbkHuaurizoXunW5lmBId9mVX5RmQBcH7DMmA3RbHk+OKfOS6PY0dlc/CwbM8LOW/Ptr7+HrC6lZ08saEn4Y8ZppVmcfzoHI4Ykc2exQEqC/wDXgOrO2yp7wixoi3EW9v6eGNLkDe39i94HGsnjM7lzPIcnAguL89s6uW2BI9r2q0owOfL8zh8RBYHlmXH5IJh6V+E+eXmXl5u7uOBNd2sivMODTk+w/Gjcjh5bA5HjciJyc2Qa/sDyN8aurh9VScbY9jzNL7Qz4oZoyP++Veb+zjgwQ1Jff7ZqzTAzKp8jh2Vw95DsqJaNsa18Na2Pp5Y38OCVZ0Je+x91Mgcdiva9Y1a0IX7Vnd5Wgx+MMP5ESNyPt7xYp8hWQOa2LCuK8xLzb08v6mPFzb38vqWPoJxviBU5PuZUZ7HUSOzOKAsO2bbgTZ1hni1uY8XN/fx8LruQXmakJQsG6mtGIUxdtcB8Nblw/AFNpIaq2NklI/W+9utyM/uRQEmFfupLvBTluMj12fI8xuKA87HYWpbn/vxRvPLWoO8vS3IK819vL6lN6lmYOb6DLsXB5hUFGBMXv/m3fl+Q0mWQ0HAEHAM23pdel1LV8h+vODvmq4wDR39+xBv1COkHZpQ6GdycYDyfD/l+T7G5PnI9vXX12f6698RsoRcS3vI0hHsP2Y29fT/9wdtIT5oC0a9m0mslGU7TC4OsPuH34FJxQFG5/ooyXL6dwn48Jj5qCejO2RZ0xVidWeYJS1B3toa5NlNPXG70J9Xmc/fPOyL/Of327nslW0pcxyVZDkcUJbNxEI/E4v8jMv3URRwKAwY/MYQspb2oKU96LK6M8zy9hDL20K80tw76I8A05XfwOSSAJX5fioL+r/fRQGHXL/5uLOgK+TSGepvmy29LvUdIVa2h1jRHkqKMcTj8v3sVdJ/fhqX7zAu30/Oh+cnBygIGNqDFtdaWoOWrpDLxm6XDT0uG7rDfNAW5IO2UNKujjDojK2jpqp2pz/y8f+a13AWhrtUNRGRyP1+vxKu2KMo4p+f+dyWhPcOi0imBUAuoKby9p39iPOJtHi4KiYi4o3XsU0vbdasVxGJqyB9vod39UP/CYDWKACKiHgQcAzTh0a+HV1zrxv3MZQikvEe4eJxWyMLgAuXF2GYppqJiETusOHZFHhYM+2lzb1omXQRiStjFkXyY/0B0PUfDPhUNRGRyJ08JsfTz7/c3KeiiUg89dIdui/yAIjZTzUTEfEYAMd622LqqQ09KpqIxJF5mEvHR7StV38AtOypoomIRG5CoZ89PKxR2NLnagKIiMSXtXdG+qMfTQLZQ1UTEYnclyYWePr5R9f1JN3uHyKSVrrwB++PPABa6wMmqW4iIpHJcgyzJ+R7+p1/NHWrcCISR+ZOZk5sizwAzm2qALJVOBGRyHyxKp/hOZHPm+sKWR5Y06XCiUj8OOYWTz+O30xU1UREIlMYcLhqn2JPv3P/mi469PxXROLnA2aOe85bADSuAqCISIR+uXcRo/O8rZp1wwfa+k1E4upmjPF0l+kA5aqbiMiufWX3Qr45ucjT77zXGtTyLyIST0ECbp3XX3II2xGqnYhkokg38fAb+MGUYv5yQKnn17h6Sbt2/xCReLqf86s3ej7/gRmu2olIprnlkCF8sSqffzZ18dj6Xla0BVnbHWZDd5g8n6E022HP4iwOHZ7FOZV5lOf7Pb/GB21BFq7qULFFJH4c509R3QDjMFy3pyKSScqyHWZW55PlGL5Ylc8Xq/Lj8jrffb1Fa/+JSDy9xqzyZ6PKjViKVD8RySTnVfWHv3ha1NDFfau19p+IxJGxv4/2Vx1VT0QyzczqvLj+/YaOEF97easKLSLx1Mi4yrsUAEVEIrBbUYADy+K39n1nyDLjqWaae10VW0Tix9g/cbQJKQCKiERgVhx7/7pCljOf3MxbW/tUaBGJY/ijFSd060D+hAKgiGTQORNmVsdnwse2PpdT/72Zx9drzT8RiTPXXuNl39/t8auKIpIpDh+RQ2VB7E9772zr46ynmlnRHlKRRSTed7Kt+KNb+kUBUEQy0nGjYjv2ryNk+d93WvnD0naCrtZ7EZGEJMA/cEHFNgVAEZEI/b2+iwPKsjhqRA7ZvuiXgXmvNci8FZ3ctLyDbX2a7CEiCdNC2L02Fn9IAVBEMsbS1iAnPr6ZfL/h2FE5fG50DnsUB9i9KMDoPN9nfj5kYWN3mMbOEIu39fH6liBPbujRo14RGSy/Y05ViwKgiEgUOkOW+1Z3f2qh5hyfIddnCDiGkLWEXGgLqndPRJJGM6GeP8fqjykAiogAPWFLT1jj+EQkaf2Ciya1x+qPaRkYERERkeT2Hj3NN8TyDyoAioiIiCQz117BpfsFFQBFREREMoHhX8ypejjWf1YBUERERCQ5hXDN9+PxhxUARURERJKSvY7ZFe8qAIqIiIhkhjX4Qj+L1x9XABQRERFJNo79BjMntikAioiIiGQCw93MqvpnXPOlqiwiIiKSNNqwvsvj/SLaCUREREQkWRj7fWrGrY33y6gHUERERCQpwh9PsaryxkS8lIO121RxERERkUENf6343NlcadzEBEBj1qjqIiIiIoPItV/hgurGRL2cA6xV1UVEREQGzUJmV/0tkS/o4KgHUERERGRwmNX4zWWJflU/rnoARURERAZBGMdcwAXlCZ+P4WBCDaq/iIiISKKZHzOr/NnBeGWHnLxlagARERGRRLL3UVN+9WC9usM5ozYDm9UQIiIiIgkJf8vpcWswxg5eAOy3RI0hIiIiEnfdYM7l0vGtg/kmPgyA9h21h4iIiEi82a9QW/nmYL+L/gBoeVsNIiIiIhLP7GevprZqfjK8lY8C4ItqFREREZE4MdxNQ+UPk+ft9CdSQ13jJqBMLSQiIiISU6/Rk3Ukl47uSpY31N8D2D8L5SW1j4iIiEhMNRBwT02m8PefAAhg7QtqIxEREZGYacP1nc751RuT7Y35//M/7fMfPREWERERkQHpwnFOpXbc4mR8c//pAezd+iLQpvYSERERGZAghi8M1jZv3gLgpfsFwTypNhMRERGJWhjsLGoqH0zmN+l86v9Z9xG1m4iIiEhULPBlaqvuSPY3+ukA6JiH1XYiIiIi0TCXU1t5cyq8008HwJrKemCZGlBEREQkYhb4BrUVf06VN+x8Nryae9SOIiIiIhEJAxdTW/mXVHrTnw2A1t6pthQRERGJIPxZcyG1lbem2hvf/sJ/8+s/ADNR7SoiIiKyXX0YvkhNZUo+OXW2Hwudu9SuIiIiItvVgbGnp2r423EADLuL1LYiIiIin7EehyOpqUrppfN2vPfb/IY3gb3VziIiIiKAZSkB92QuqG5M9Y/i7CQb3qqWFhEREQHgSaw9NB3C384DoJ+FQLfaW0RERDLcQnI7T2ROVUu6fCCz039b17AQywVqdxEREclAYTA/pqb8aoyx6fTBnJ3/a3uT2l5EREQy0GbgeGorfptu4Q921QMIML/hDWAfHQciIiKSId7EtZ9nTlVDun5AZ9cR0fxRx4GIiIhkiFtx7SHpHP4gkh7AG14LkFO2ChirY0JERETSVDvWfIfZFTdmwofddQ/gpfsFsfZ6HRciIiKSlox9Fcc3PVPCX2QBECDg/D+gTUeIiIiIpJEwcBXjKg9h1rgVmfTBIwuAF1RsA67RcSIiIiLpwazG2GOprfwxR5tQpn16J+KfdO0fgG06YERERCSFWYy9EV/fFGqqns7Y+Ovpp+fXXwnm5zp2REREJAWtxHAJNZX/zvRCOJ5+usf9I+oFFBERkdQSwthrMTnTFP76Gc+/Mb/hu8DVKp2IiIikgBdw7deYU/WWSjGQALjo3Sy685aAmajyiYiISJJahzU/pLZ8QTpu5TZQjuffOGfPPoz5gUonIiIiSagPY68l1DOJ2RV1Cn/bZ6L+zfkNTwFHqoQiIiKSBCyGe4DvUlNZr3LsnH8Av/st4FXApzKKiIjI4DGP4JqfMqf8VdUiwooN6LfnN/weuEJlFBERkUHwAvATaiufVCkSGQDrNuRje5YAlSqliIiIJMjLOOanzKp4TKUYjAAIMLf+RBzzkEopIiIicfY8xvyWmor7VYrBDoAA8xtuB76ocoqIiEiM9WHN7cD/MbviXZUjmQLg7evKCPa9A4xSSUVERCQGNoO9lZDvWi4qX6dyJGMABFjQeDyufSSmf1NEREQyzetYcyN5zgLOGdetciR7AASY33At8A2VVURERDzYAHY+1ncTs8tXqhypFgAXrc6lK/wahj1UWhEREdlJAmkFey+YO+hufoxL9wuqKKkaAAHmr5oKzotAnsorIiIin9CJ5X589g5CPMycqh6VJF0CIEBd4yysrVN5RUREMt464GEwD9ETeJBLR3epJOkaAAHqGq7H8hWVWEREJKOEgbfAPoB17qe2/A2MsSpLpgTAa5dnUxx4GjhQZRYREUlbvcCrYJ8H5zlc9znmVLWoLJkaAAEWrhlLOPQyMFqlFhGRDLMNyAFy0+xzNYJ9G5wXMDxPS9+rXDaxV82tAPhpCxqm4/IMkK9yi4hIhnDBPZjcqtfpXFWN8U3FmClgpwB7ARMAX5J/hjZgKca+gzVv4ziLCYUXq3dPATBy85pOx7j/AByVXERE0v/qam+kpurSHf77G14LEBg2Dr+txFKJtRUYU4W1lRgzCsMwLMVxfId9wJYP/7MaqAcawNRjTAPWqad27BY1pAJgDEJg/bcw5g8quYiIpLlmgr7duXjc1gH9lSetn/X1Q3F9Q7FmKISHEiYXnEIAHDcP62R/+NMlWLcP4/TPsDVuK67jghvEcTrAdoLdQsjZTFZfMzMntqmZFAATZ37D74ErVHYREUljF1FbeavKIMkssY9kayq+g7E3quwiIpKezCvUV8xTHUQB8FPfC2PJqfwqlr+r9CIikmb6cMKXcKVxVQpRAPxv55gwvc01wAMqv4iIpA1jf86s6rdVCFEA3JFL9wuS23kWcI+aQERE0sDz5FT+TmWQlLlfGdRXX2R9dDfOA2aqKUREJEV14Pj2Yda4FSqFpIrBXZfvHBMmt2I21sxTU4iISEoy9hsKf6IAGE0IbCi/CLhezSEiIinmHmqq5qkMknL3LUn1buY3Xg72D2jHEBERSXp2OS4HaGs0UQCMTQg8G+wC+jfQFhERSUYdGOdgasqXqBSSipKvp6224i6MPRHYpuYREZEkZDHUKvyJAmCs1VQ9jQnvDbyuJhIRkaRi+BU1lVrGTBQA4xMCxzfh2sMwtk7NJCIiSZL+HiWn4krVQVL/PiYVzGu8BGP/AgTUZCIiMjhXTLuYMEdo0ocoACbS3PqD8JnbsFSr2UREJMFXy1WE7aHMqdqgYkg6SJ3lVuZUvYQT3Ae4Xc0mIiIJtBkbPknhT9LrniYVzWuswdjrgAI1oYiIxFEbDkczq/INlULSSWouuDy7og7r7A38W00oIiJx0othhsKfpCOT0u/eWsP8plkY+0dgiJpTRERipAvrzmB29aMqhSgAJqv5q8eAex3YM9SkIiIyQO0Yexo1VU+rFKIAmArmNR6LsdcAe6ppRUQkiqtiK5aTqK18UcWQdOak1aeZXfEEPc37gPkmhlY1r4iIeLAN635O4U8y414nXd2+agQh5+dYLgKy1NQiIrKTy+FqjDlZ+/uKAmC6qFtZDs6PseZCwK8mFxGR//IWPv9pzBy7RqUQBcB0M7d+Eo5zJdgvkG6PvkVEJNqr4N10Z9Vw6eguFUMUANPZrY3V+N3LseZiIE+HgIhIpl4B7bWsqvwWVxpXxRAFwExRt2I41v914KvAUB0KIiIZowdjv0JN1TyVQhQAM9W1y7MpyToday8BjlVNRETS2ge49lzmVL2lUogCoPSra5iMay7B2FmoV1BEJN0sJDfvK5wzvEOlEAVA+axF1kdP08HgzgJzLpZiFUVEJGV1g/khtRXXqBQiCoCRmVufg2NOwnAWlhOAMhVFRCRlvInPzGRmxVKVQkQBMDpXWofKpn0wHAf2NOBgtKSMiEgy6gH7W3K7ruKcPftUDhEFwNi55f1C/LkHgnsYmEOBw4AcFUZEZFC9gOFiairfUylEFADjb259Dn4znbCdhnGmgZ0KTAEKk+L9WTaCfQdj3gLzDti1wKNohxQRSQ/twA+or/h/WttPRAFwkEOXNcxtqiLAeMJUYagCqsBWAmPon22cG6NXawM2A2uwph6HeiyrsNTjBJdTM2HTZ35jXv19GHOaGkpEUpgLZgE+30+0nZtIZNTzE/eIbSyw6sP/bF/dhnzoHIrxleGaIWADGFPwYYAsxJr+dnLoBnqwWKAF1w3h8zVj3C1kd26JapyL4RZAAVBEUtW/ge9QW/GmSiHi5fIvme1J66epsREYrWKISApZhjE/pabiTpVCxDvNYM10R5sQhltVCBFJESsx5hLKK6Yo/IlETz2AArc0jcbvNgABFUNkIGdU+yrWvAzMAfJVkJh6B2t/Q17lIs4xYZVDRAFQYmF+w23A+SqEyAA4dgazqv7JwuVFhLPmgP0u/ZO9JFqWN3DMb5hVfteHY6pFRAFQYhcAVx0AzssqhEjUVpBbMelTvVPXLs+mJDATy9eBvVWiiHVj7J0YcwOzKl9QOUQUACWuIbDhWfoXsxYR72fTr1NTed0O//2Chum4XER/T3uJCrZdb2O4ibC9jTlVLSqHiAKgJMLc+hNxzEMqhIhnm+jJquLS0V0RfM9yMOYssLUYczRajmszmHtwzS3MKX9Vh5KIAqAMhvkNrwL7qRAiHljzfWZXXO35925rLCXIaRh7KnAyGTNxxKzGuA+B8wDdmx/m0v2COohEFABlMM1rOAvDXSqESMSayc2r4pzhHQP6K4s2FdDVfTLGnggcA1SkUY1c4B0wD0P4H9RUvaoJHSIKgJJMrrQOVY1vANNUDJGI/Jjayqti/lcXrJ5A2D0G4x4L5ghgZArVJISxb+KaZ3DM04TdZzWmT0QBUJLd/MZTwd6vQojs0jpMzm7UjOyM+ystXDOWcHBfjNkPy77AvsDwJKhBL7AUWAIsxrpvE+57kYsmtevwEFEAlJQLgQ3PAYeqECI7Ye2FzK6aO2ivf/u6Mnp7J+A4E7DuRIyZAFTRv7XjMCAvFp8S2ACsw9p14KwFuxbHLCPsLqaycgVHm5AOBhEFQEkHC5oOx3WfUSFEdugt6iv25UrjJu07vGFdHgU9wwibkVinENx8jJOFdR2sU/yJn+zBoRvXdmFML67bgXGC+H0b6dywUZM0RBQAJZPMb7gHmKFCiGz39Hk8tRWPqw4ikooclUB2KGy+A/SoECKfCX/3KvyJiAKgpKcLK1aB+ZMKIfIpIXz8SGUQEQVASeNLXfdVwHoVQuRjf2VmxVKVQUQUACV9XTSpHWMuVyFEAFiP3/xcZRARBUBJfzUVd4K9T4UQ4WtcULFNZRARBUDJDMb9BtChQkjmfge4jdrKf6gQIqIAKJmjZnwT1vxYhZCMZNmI9WsohIgoAEoGaij/C/CkCiEZ6GvUjt2iMohIutBC0OLNwjVjCYcWAyUqhmTIafIOaivOUx1EJJ2oB1C8mTl2DYbvqBCSITYT7vuGyiAiCoAiNZW3AH9TISTNuUAtF07crFKIiAKgCIBrvwrUqxCSxn5FbeVDKoOIKACKfGROVQuucy7Qp2JIGnqS3IpfqAwiogAo8pkQWP4q1v5AhZA0sxYTOo9zTFilEJF0pVnAMnDzGudi7GwVQtJACMc5hlnlz6oUIpLO1AMoA5fnfBV4XYWQNPB9hT8RyQTqAZTYmFtfiWNeBcpUDElRd1JTcS7GWJVCRNKdegAlNuZUNWDMDKBHxZAU9BI9WbMV/kREAVDEq5qK5zCmBtBFVFKHZSlB3ylcOrpLxRARBUCR6ELgnVh+pkJIilhHwD2Zi8dtVSlEJJNoDKDEx7zGP2LsN1UISWJtuPZI5lS9pVKIiAKgSCxYa5jfdKuWh5EkFcQxpzCr4jGVQkQykR4BS5xuLYyld/MlwIMqhiSZMNbWKvyJSEZfplUCiasb1uWR03c/cIyKIckR/qhlduVtKoWIKACKxNOi1bl0h+8DjlMxZFDDH2Y2tRULVQoRUQAUUQiU9NeH4YvUVN6jUoiIaAygJMo547rpyToDeEjFkATrxZizFf5ERP5DPYCSWE9aP01NN4OtVTEkQeHvC9RU3K9SiIj8h3oAJbGONiHqyy/E8FcVQ+J8e9uK4WSFPxGR7Z0iRQbLvIafYPiljkOJw5ltFY45jZkVS1UMEREFQEk2dY1fwNr5QK6KITHyIiZ0JjUTNqkUIiLbp0fAMrhqKu7EcU4AtqgYEgMLaA0erfAnIrJz6gGU5HDrinH4/PcA+6kYEgUL9pfUVP4CY6zKISKiACipon/XkJuBL6oY4kHnhws836VSiIgoAEqqmt9wBfAbIKBiyC68hzVfYHbFuyqFiIgCoKS6uqb9sO7fgfEqhuzg7HUbOXlf5pzhHSqGiIgCoKSLufUl+MzNWM5SMeQTOjB8k5rKW1QKEREFQElX8xsuBv4AFKoYGe9lHN9MZo1boVKIiCgASrqbW1+Jz8zFcpSKkZGCYK+ivPJ/OdqEVA4REQVAyRRXWofKpq9j7K+AAhUkY7yG417MrOq3VQoREQVAyVR1K8uxvuuAU1WMtNYN/Jzyij+q109ERAFQpN/8xrPBXgOMVjHS7tR0L677TeZUNagWIiIKgCKfdsO6PHJ6vwfm+0COCpLyVmK5nNmV/1IpREQUAEV2rn8ruV8Bs1SMlNQM5v9w3WuYU9WjcoiIKACKRG5u/UE45irgaBUjJXSAvQ5f6CpmTmxTOUREFABFoje/8Tis/S2G6SpGUurD2HkQ/ik1EzapHCIiCoAisWGtYWHDGVh+hDX7qyBJIQjmVnD+h9pxa1UOEREFQJH4mbfqczjOD7WQ9KBpB24iHPoTF05YrXKIiCgAiiTOgobpWHs51pwLZKsgcT/FrMa41xPm/zGnqkX1EBFRABQZPLevGkHQ92WwFwNjVZCYssATwPXkVtzHOSaskoiIKACKJI9F1kdP4wlYLgJOAwIqStTWglmAE57HrOplKoeIiAKgSPLr7xU8B+x5wMH6fkSkA8O9YBeQU/m4evtERBQARVLXbasqCPnOAz4Pdj/AUVE+EfosD+BwJzm+hzhnXLdKIiKiACiSXhY0jMKaU7HuqWCOA/Iy8EyxCsuDwIPk+p5S6BMRUQAUyRyL3s2iJ+9gXI7BmGOBA0jPcYObgKeBp3DcJzSmT0REAVBEPlK3IR+3a1/wHYSxBwEHAqNT7FOEgKXAK8DLWPMiteVLMcaqgUVEFABFJBKLVg+hh4lYdyLGnYg11RjGYilMgm/8ZqAeWIllFW54BflZK/RIV0RERERERCSN/X8LZdhQDp+5IAAAACV0RVh0ZGF0ZTpjcmVhdGUAMjAyMi0xMi0wNlQxNzozNzozMSswMDowMNM0bSAAAAAldEVYdGRhdGU6bW9kaWZ5ADIwMjItMTItMDZUMTc6Mzc6MzErMDA6MDCiadWcAAAAAElFTkSuQmCC;" vertex="1" parent="1">
          <mxGeometry x="115" y="310" width="60" height="42" as="geometry" />
        </mxCell>
        <mxCell id="USl1ifPrtfJnEXk17NBj-22" value="" style="edgeStyle=orthogonalEdgeStyle;rounded=0;orthogonalLoop=1;jettySize=auto;html=1;" edge="1" parent="1" source="USl1ifPrtfJnEXk17NBj-4" target="USl1ifPrtfJnEXk17NBj-21">
          <mxGeometry relative="1" as="geometry" />
        </mxCell>
        <mxCell id="USl1ifPrtfJnEXk17NBj-4" value="" style="image;aspect=fixed;html=1;points=[];align=center;fontSize=12;image=img/lib/azure2/databases/SQL_Data_Warehouses.svg;" vertex="1" parent="1">
          <mxGeometry x="494" y="189.82" width="64" height="65" as="geometry" />
        </mxCell>
        <mxCell id="USl1ifPrtfJnEXk17NBj-8" value="" style="shape=image;imageAspect=0;aspect=fixed;verticalLabelPosition=bottom;verticalAlign=top;image=data:image/png,iVBORw0KGgoAAAANSUhEUgAADwAAAAhwBAMAAABikNZBAAAAElBMVEUjRVv/////e1d8cHjc4eWir7gAFgx1AABlt0lEQVR42uzBAQEAAACAkP6v7ggKAAAAAAAAAAAAAAAAAAAAAAAAAAAAAAAAAAAAAAAAAAAAAAAAAAAAAAAAAAAAAAAAAAAAAAAAAAAAAAAAAAAAAAAAAAAAAAAAAAAAAAAAAAAAAAAAAAAAAAAAAAAAAAAAAAAAAAAAAAAAAAAAAAAAAAAAAAAAAAAAAAAAAAAAAAAAAAAAAAAAAAAAAAAAAAAAAAAAAAAAAAAAAAAAAAAAAAAAAAAAAAAAAAAAAAAAAAAAAAAAAAAAAAAAAAAAAAAAAAAAAAAAAAAAAAAAAAAAAAAAAAAAAAAAAAAAAAAAAAAAAAAAAAAAAAAAAAAAAAAAAAAAAAAAAAAAAAAAAAAAAAAAAAAAAAAAAAAAAAAAAAAAAAAAAAAAAAAAAAAAAAAAAAAAAAAAAAAAAAAAAAAAAAAAAAAAAAAAAAAAAAAAAAAAAAAAAAAAAAAAAAAAAAAAAAAAAAAAAAAAAAAAAAAAAAAAAAAAAAAAAAAAAAAAAAAAAAAAAAAAAAAAAAAAAAAAAAAAAAAAAAAAAAAAAAAAAAAAAAAAAAAAAAAAAAAAAAAAAAAAAAAAAAAAAAAAAAAAAAAAAAAAAAAAAAAAAAAAAAAAAAAAAAAAAAAAAAAAAAAAAAAAAAAAAAAAAAAAAAAAAAAAAAAAAAAAAAAAAAAAAAAAAAAAAAAAAAAAAAAAgNmDAwEAAAAAIP/XRlBVVVVVVVVVVVVVVVVVVVVVVVVVVVVVVVVVVVVVVVVVVVVVVVVVVVVVVVVVVVVVVVVVVVVVVVVVVVVVVVVVVVVVVVVVVVVVVVVVVVVVVVVVVVVVVVVVVVVVVVVVVVVVVVVVVVVVVVVVVVVVVVVVVVVVVVVVVVVVVVVVVVVVVVVVVVVVVVVVVVVVVVVVVVVVVVVVVVVVVVVVVVVVVVVVVVVVVVVVVVVVVVVVVVVVVVVVVVVVVVVVVVVVVVVVVVVVVVVVVVVVVVVVVVVVVVVVVVVVVVVVVVVVVVVVVVVVVVVVVVVVVVVVVVVVVVVVVVVVVVVVVVVVVVVVVVVVVVVVVVVVVVVVVVVVVVVVVVVVVVVVVVVVVVVVVVVVVVVVVVVVVVVVVVVVVVVVVVVVVVVVVVVVVVVVVVVVVVVVVVVVVVVVVVVVVVVVVVVVVVVVVVVVVVVVVVVVVVVVVVVVVVVVVVVVVVVVVVVVVVVVVVVVVVVVVVVVVVVVVVVVVVVVVVVVVVVVVVVVVVVVVVVVVVVVVVVVVVVVVVVVVVVVVVVVVVVVVVVVVVVVVVVVVVVVVVVVVVVVVVVVVVVVVVVVVVVVVVVVVVVVVVVVVVVVVVVVVVVVVVVVVVVVVVVVVVVVVVVVVVVVVVVVVVVVVVVVVVVVVVVVVVVVVVVVVVVVVVVVVVVVYe8OduO2oQCKFlS7rxB7L9A/oFLtPkadfYwi//8rdZwESFo7npEoSiTPWbYrE5pcvSd5DAAAAJzB7AgAoKRlWe6eLYsKA0Ch+sYf3C3OBAD2NaT4AnMwABTP7/MYLMEAUDq/zwl2QACwgyW+wRAMANml+CZDMADkNcRL3BmCAaB4f62hASCnEKMCA0BhKV5hcl4AULy/MfpiLAAo318FBoAMlni12akBwDZDjAoMADX0V4EBYFt/07oA+04sANhgZX8VGAA2CHG12ekBwDpDjAoMAKVt6a8lNACsEzYFOE5OEACuN8SNZmcIAFdLWwNsCQ0AVwsxGoEBoLSYgVMEgOukHAGenCMAXGOI0QgMAFUOwN7DAoAjBmAjMAAcMAAbgQHgiAHYryIBwAEDcIyT0wSA4gNw50+B5+Wr2SYAgJIDcM8j8JJ+OMhlcWUB8FMxGoE3bxGWl15JMwcD8LqQN8A9Rmd4bYkgwQAUGoB7/E2k5DgAuH56yxzg7kbgwXkAkHl8MwLnOD9vYwFQYADu7DWs5JYEgDVC/gBPHR2fexIAdi2IHfS29YELDYCVCfEa1qbDm11rAHwn7RHgSX/9RjAAP7VHfzvZQQ/JoQBQYoizb920PFBgAFZHxA56w9EpMADf7NPfHlITLAYAWG2nDXQHqRkcCwBlxzg76M+SzQAApTOiNKsPToEB+GXHDXTr3/w02M0DsEHYL8BthyZZDQBwSEf6Dk3ydByALWK0g15hcDAAHBeSfnfQyW4AgC2CAB9x3zK78gA6l/YM8J1jMwID8KIYPQQuPwAbgQF6N+wb4FYzkywHANgkCPBBty1GYICupX0DfOfUjMAAvCAK8DEDsBEYQIC9hXXI2sAIDNCxYe8Azw7N12EB8D9BgI87tMn1B9CtFD0Evpr9PACnaUlHAQ7WAwCcPsANTnnJ3QkAGw37B3h2ZnbQAPxHEOBDz2xyCQII8E6aa4wn5ABslqK3sK402A8AcKpprpMAJ/sBAGoIcGsvGiW3JwBsNQjw0Uc2uwoBBNhr0G8L3lED4HQ16SDAySNyAOoIcFMz3mBDD8D5xrn2AxwcDwCVBPjOidlBA/CDKMDHn5jLEECA/R7SGwYvqQFwzpy0HeDgGTkAAlxesqIHoJoAz+2cmBsUADIIAnyGO5bZlQggwAJT/sAEGECAfRPHT+3ze9MeAgP0JgmwAAMgwKfnNXEABLi8wUNyACoKcDMr1uAOBQABbue8BBigM1GATxFgb2EBmID15YgbFpcigAlYgF+13zd3zq5FAAEWYAEGoIkAt7JhDQIMgAm4pQB7CwtAgE3Ar0oCDEAOgwCf5H5FgAFMwAJ8xHG5FgEEWF4OWBi4FgEEWF4OCPDsYgToiGfAVwkCDEBVE3AjrxjtGeDJxQggwCZgAQbABHwayREBIMACDICkCLAjAsAEXN9pCTCACVhdjrhdcTECCLBXfAUYAAE+i0GAARDg1gI8uxoBBFiATcAA7CmUCXAb050JGAABFmAABFiAnREA52mKPwcswAAIsAADIMAVCgIMQC6+idIEDIAAm4AB6EORb+KYTMACDIAAm4AB6CLAjbTFBAxAJVNdW20xAQMgwCZgAETFF3EIMADX8XtIAgxAqwFuoy4CDEA+yQgswAC0GuA4CXAXz8kBuFShvwjcwoBnAgaglqo0tYQ2AQNQX4BbmPAEGIBKqtJWYRwPAPmkaAl9ggDfuRIBOhOiJfQJ7lUEGECAbVkFGIDdDeUCXHtkBBiAjMoFuPYl9J4BnlyIAL1JRuALBQEGoI6stFXgYDkAQD4FHwJX3pnBwQBQaYDvnJQAA/BFKlngSYB9ERYA5QNc9agnwABUMti1tYR2KgBUG+CaR+AkwABU0ZXGChw8Ggeg3gDXO+0FNyUAZFR4B11vbQZHAkBOhQNc7Su/AgxAVoV30PUuoR0IADmFaAl96J2KAAN0KhqBDw3w5BIE6FPpHXStxQmOA4AawtLaEnpwGgDUEJbmltBeCwcgq+I76Dg5J+9gAVB+B13n2jW5GQEgq2gJfdyNigAD9CsZgS8xeAQMQAVlaa/AAtyMT9t8rP9HmF0EVPVh/djuTxgtoY/aFHgH6xDjNr/X/yO8dxFw7u5++OrrFXvz5T+0eOcYjMBHHdPkg6Zeq9xv+xE+ugg4q18fnrxy4X7+X639vEfsoKNj8jUcAizA8L3fngJ7f/PklQv38/96ePjQ1g+dLKEv4TZEgAUY9vLnU3wvu34fHv42Avc2/CUbaAEW4L48r0NXeu/4rvHq2vnlUbilVbQR+BLBTYgAC3BnAa78Zb1a3K+4oG9ujMBdjX820AIswAIswLk9rj3iWyNwR/Nf8hxcgAVYgAU46/i36Up+18QZLNESunyAJx8+ARZgAZbf7hMcLaEvuFY8AhZgARZgAc42+f0xZrDU/y9piJbQpUdgG2gBFmAB7nj6/XPM42ap/iySJXTpQ5p8AgVYgAW41/wu92M2f9c+BA9G4NKHNPsMCrAAC3Cflscxp+qH4ENG4NjxIdlAC7AAC3Cn4++nMbd/6r6ojxmBK6tQsIEWYAEWYAHe5q/HMb/buq/qZAld9C7Fp1CABViAu+zvuIvbf4zAjXco2UALsAALsABvKM2ncS9VF3ixhC54lzL7IAqwAAtwf0f6MO7nQ83/rlpCv80GWoAFWIAFePWJ3o97eqi4wN7DelvwCpYAC7AAC/A6D/v296nA7+s9nGO+D6uqFg0GYAEWYAEW4HX9HXd3U3GBLaELHZFXsARYgAVYfxV4j/mu4RoNXsESYAEWYAEuftVenmAFbncJnQzAAizAAizA13q8GRX4Dcc8Bu7tHsUALMACLMBd+W0sqN4C+7NI+5+QAViABViAu7KMRd32VODU1Ug4GIAFWIAFWICv+VdzLOy22n9lV/QkdbWETgZgARZgARbgy/v7R+kAj+96KfCcYyisKUqDAViABViABfjE/e2mwM9/CDl0tZZNBmABFmABFuAT97fiAg/pyv5meDOpqiz5EiwBFmABFuDLevI4HqPa58CXF/jbT9jXEnrLwD/5QAqwAAvwv+zdy3LbNhTGcWkg7oMx/QLyC0iGsjcnzN4aS+//KpWTNm1jx+YFl3P5n+lkk2ZMUwB++g5J0E8dY6u6U3vOpgn8cJj5D2hC04AGYAAGYEf1dWgGsOIXBKd5/jprQgfuwAJgAAZgABbtb+z1Cvx5GzplMkljc/aRBjQAAzAAA3DhobpW4G96z1yaHn+zRGAHTWga0AAMwADsqMbYtnrFPccPQvBDevu/8zAwd0ADMAADMACL8TfGUfX5S5P59daEDlwABmAABmAALnT+eDHDD2fexuD0J0fYkZILwAAMwAACwH+fvkEAwPo/iJAe/82+H6U4XovEBWAABmAABuAcwzRXPXk53752pJwpMP4CMAADMP7ShBYTCpXfpsQNWAAMwAAMwNlPHgIvKl87Us4SmMUMgAEYgP1UGMQAHL95OenOmtAb/AVgAAZgAM4+RrkMvKh8vRZp8q/LBWAABmAA5tSxH0fhvoOrh4EBGIABGEUA+C0EogJwjPdEYM87UgIwAAMwAPupcxRWbi4Du2pCAzAAAzAAA/Bv1UVx5WXQu2pCAzAAAzAAA/Bv/p7lAUwT2mATGoABGIABGID/XwL9jfG7l7Pv6GFgAAZgAAZgAM522mhCry5HTWgABmAARhIAlh+AHW2I5WdHSq8AB833FAIwAAOwvwAce5rQ1prQTgHejZrvaABgAAZguaOTJvTqcrMjpU+Ad0MEYAAGYAB+ry5i/eVOaGtNaJcA3/wFYAAGYAB+r7oouLyMfC+vRfII8Ku/AAzAAAzA79U5InD7ctKEdgjwTn0vB4ABGIBdBmCa0MYisD+AhwjAAAzAAKwyANOEtvUwsDuAzxGAARiAAVhnACYC22pCOwM4nCMAAzAAA7DWABzji5ePwsN9WL4ATucIwAAMwACsNgDf6uDks/DQhHYFcDLSyAFgAAZgrwGYJrSlJrQngFMEYAAGYADWHYAdDX/7TWhHAKcIwAAMwACsPAA7isDBfAR2A3C4RgAGYAAGYPUB2NH4N9+E9gJwuEQABmAABmD9AZgIbKcJ7QXgSwRgAAZgALYQgB1NAOtNaCcAjxGAARiAAdhEAHYUga2/FskHwGMEYAAGYAAuOrGIwCIjsGi7PAC8GyMAAzAAA3C5k0UELlW2X4vkAODdEAEYgAEYgMsOSiJwW6NU4mUf4Pf9BWAABmAA/m91mvx1FIFN70hpHuDO4PgFYAAGYN8BmAhsowltHeBzBGAABmAANhaAY+8nAlvekdI4wMcIwAAMwABc9lQ1qYObj8ZwE9o2wMcIwAAMwABcfkhyFVgAU/qa0JYBTscIwAAMwABsMQB7isB2m9CGAU5mvz4CMAADcOY6A7DgMrsjpV2AUwRgAAZgAJ62wuvz11MP2uyOlGYBThGAARiAAXhadQoB9jQNrO5IaRXgNAAwAFMAXGdAEoFLl9EdKY0CfB0iAAMwBcDlzxMRWBRVuprQNgG+2P7yCMAADMBZa6sTYE8R2GYT2iTAlwjAAEwBcK3x2Kw8jWWTTWiLAF8iAAMwBcBVThM9aGlYaVLMHsDdGAEYgCkAnl5brQB76kGb3JHSHMDdEAEYgCkArjccicBKIrC8JrQ1gKf6C8AADMAAvP4sNa4nV8PZ3n1YxgCe7C8AAzC0APDP2uoF2FUP2mAT2hbAwcfABWAABmA5o5EELM4rNU1oUwAfIwADMAXA9U5S4+q9DWhrTWhLAB8jAAMwBcB+AH7yNqCtvRbJEMCz/AVgAMYWAP6xpg8EYD1lbEdKMwCHef4CMAADMAArD8Bf/I1oYztSWgF49rdYAAZgcGF1v9VJL8Ae54GtHSmNADy/iwTAAAzAALzRfA9073JMm2pC2wB4wVUcAAZgAAZg1ZeAfU4DU01oEwC/LJhCAAzAAAzAmjvQ904HtaUmtAWAr94GLwADMADnqjMBWFsZei2SAYCvEYABmALgZQ3NgQCs7jOzsyOlfoCvEYABmALgZdWpDcB3foe1nR0p1QN8iQAMwBQALyy9l4A9TwIz92EpBziMEYABmALgpaX2EvC953FtpgmtG+AV128AGIABGIADAVhlWXkYWDXAa+6fAGAABmAADgRgnWWkCa0Z4FX3LwIwAAMwAB8JwEq/Odm4D0s1wBGAAZgCYAB2WDaa0AAMwAAMwF4BpgPtOAJLQA2AARiAARiACcDaysSOlAAMwAAMwF4BPhKA9ZaFJjQAAzAAAzAAE4D1tS8MPAwMwAAMwADsFWACsOYy0IQGYAAGYAB2CrDWjaC/MLJn8SXXNQAGYAAGYKer/JYOtOrS34QGYAAGYAB2CvCZDrTzCNy6CQ3AAAzAAOwUYAKw9gisvQkNwAAMwAAMwARgnQIrb0IDMAADMAD7BHinE+AD43q+YEKb0AAMwAAMMT4B3gKw/tK9IyUAAzAAA7BPgAeV/t4xrP/HgOoIDMAADMAA7BNgArCFUr0jJQADMAADsEuAS18C7nMsVATg8hG4oW4ADMAAjDEAXDim5ut2M/Z/L807UgIwAAMwxrgEuNQ9WP1zQe55Bmm5YgJ5A2AABmAAdglwkXuw+vGP8+s0EoDLSKD3YWAABmAABmAAzlTjh7PrNJRJ195LbxMagAEYgAHYI8BhKBB/P/mZ3doQTAd6lWPigANgAAZgAPYI8K5y/P1Zl4GRX8ACrU1oAAZgAAYZjwCfsvs7qY+5KgTzDFKpCNyoCQ3AAAzAAOwR4Nwd6PupS/iFgZ+/lD4MDMAADMAADMD1/N1sroPDVau0BjojMAADMAADsEOAM9+DNcPfzaYb+EhaUSZLYAAGYAAGYIer/a6dv5tNWjYBDozoghG4BXIADMAAjDIAXNXfm8DcgiVP4AbfbwAYgAEYZRwC3OUEeP6ATATgVphJei0SAAMwAAOwQ4DPGf19WfDzEwFYXASuzxwAAzAAAzAA119MAgE4cynckRKAARiAARiAG6wlcxcwhnMuzuQ4B8AADMAA7A/gjJeAn+usYHSgPz+h6nakBGAABmAABuAmS8msgzgwnD8tdU1oAAZgAAZgAG4zGDsCcBvQpEgHwAAMwADsD+CzgAA8S2AC8CQUlDWhARiAARiAAbjVWJz6ZoZvDOY6EbhuExqAARiAARiAmy0kF4Z81tL1MDAAAzAAA7A/gAcZAXjqkfQHBvNEFlRFYAAGYAAGYHcAd1IC8MRXI9GBzm6aCIEBGIABGIABuOFInHIsBODppakJDcAADMAA7A7gICYAb6ZcBuYZpDmfraIIDMAADMAA7A7gk5wAPGE6cAW4iGoCXosEwAAMwADsDuBjHoBzLWWfzIeekVw3AlfzDoABGIABGIDbriI7OtA5S8+OlAAMwAAMwADceByeuAWrhWvNwQNgAAZgAAbgRZUPxg+b0ATg2adTy46UAAzAAAzA3gAOg6gO9CefFON4dmlpQgMwAAMwALsDWFgH+lZbAnAL2RqTB8AADMAADMBtO9AfzgmG8ZJPWEcTGoABGIABGIAFrCEALCoCV2lCAzAAAzAAA/CCyt0a3jq8Ga5gqXgYGIABGIAB2NvCn+Um6Ocqs4JNOJb6oCECAzAAAzAAA3DzS8Cvn9Z704L3IJXGreWOlAAMwAAMwAAsYgk5sQ10zlLQhAZgAAZgAAbg+fWtyrwgAK8QQnoTOqTJR5LkfREDYACmALgVwCUG4YldKFvkyyZN6JDmHd6DNIMBGIApAF5S5/X+FukNhwsdaFERuFjrN6UlR5MAGIABGIC1L8wyLwFv3u6RSQd6VUndkTItzeaSCAZgAKYAuBHAhR4POhGAc5bIHSnTqiNKBwuzCIABGIABWNY9WG8OTXkA7q7/VKsZK3BHyrT6kJKBWQTAAAzAACxvGh1NBODx8lr/TvPx+8+qfiDSmtDr+RVDMAADMAXAbQAuZmNQvwvWeKv+D6ft9e/qLkCimtBhn6sOymcRAJsHeFxRlU7DacUhTjoHAFxkChW18aj5Iwi3kRmHP0/v/rXGsWISFtSEDo/7fPXQnGAABuCPf8bQL/yv1gtojisOEYCX11YywBu9AXgcp07scax2eVvMw8Bpn7da96EBGIBL/YxqABc+BwCc/byXx3Gr8xPYjfNm3DhW+v1kPAwc9tmrcQgGYAAGYABuk4CfKgwLVfxK+xqTk74M0KV9iWoaggEYgAFYJsBHkaMuZwJ+Kr+yKfoG1MVBXidBUBM669VfKSEYgAEYgGUBHDaHj0773e3vScBTx4WW9SisWYn7Gs80tG5Ch325ajehABiAAVgQwIdDmrKBxeHQHOH1CbhscPuxIaWSW7DC+me6bt/LTDehH/clq9mbCgEYgAFYCsAhnaYvuKnxDZxb4QD/2JDyScViNONj/3BE2G1Ch7L+tmtDAzAAA7AMgEOaebZTahmDxQN8i8AqAnDIwu/PxojsCPzQ7kdLbUMDMAADsASAQzovWHEbEnxeD0bhIzypCMDpHLNVX3Q8NNuRMu1rVJOOEgADMAC3BzgsXYbLLrkFZ1CF9aPTEIC/xqzVl2Sk0Y6UdfxtcyEYgAEYgFsDHK4rUtD99aBxBlV4RCg8i1+GumvMXddyv3WbHSkf93u7AgMwAANwY4C7y8ok+QLAOuvrOeavgsOhRRO6nr8tbsUCYAAG4LYAX4f1qedF3QwC4Ozt519VbjRUb0KHmv42EBiAARiAWwK8u+RYcvsrAGurcI2lqthVidpN6Mr+1r8ZGoABGIAbAnwZMq2545OilQOAX186GMtVX+o9SXUfBg77+nXQM40AGIABeJUxl3xLbj+qmkG3Omwc166kv7fRUGqFqnmnUwt/KwsMwAAMwK0A7vIuwnVD8Prjde3vEMtWqe9jFXekbONvXYEBGIABuBHAXe5FuP8OwPj76/uY9ib0fm9fYAAGYABuA3AosAh/VzODXANcw99iHZFaTeh9u1ICcD8MYz//Dwl4ATAANwY4lFl1D0pmkGeAd7FSFVmmKjWhHxsCXC8Dh1i/vgAwALsH+Fhqeh3UrBz4W7qG5xLHX+Vh4Kb+7h9qCQzAAAzADQA+lptfdyRg/C15mbDGa5Ha+ltvV0oABmAArg/wtuQEuwNgwfX1L/buZrdxXAnDcCeM9mNY2hv2DchSsrcQZ28h8f3fyukMGoNzDqZ/IlWRX1Ev0YuZVWS5xEf1UabyzradQy/nvyNlaX+zCQzAAAzA2QF2vuz2PQDjr2MxeIfQ4/G4EYEBGIABODfAo/dDsG0PwPjrJ7DzjpTpqDBGAAZgAK4Q4DS5X2MZBAbgBWMsMN96COwaQmv4m+dRaAAGYADOC3AzZbjI3AXmKegg062PwI4htIq/WQQGYAAG4LwAT1musvamfQVtEeA0lwHY4UksxxB6kAH41AMwAANwXQB/5Jp0bwCMvz/GmzklbjtS6vib40EsAAZgAM4J8Ee268y5BwbgnJWqJ7CTbul43JLAAAzAAJwR4Iy7MLS+Aq9fmdyYvy+7ksP8BcE+O1Jq+eu/DAzAAAzA+QB+mnJeaa4C1zEP5BvPU1GAW/MpyyWEPh63JTAAAzAA5wM48yTsKHAC4K+dr7L+OgjssSPlIAfwCYABGIArAfgj+6x7U72CtgbwdbdD4N+1l+l43JjAAAzAAJwL4Cb/xdbpAtxuKoDelR/mJ9z6x8CK/jqH0AAMwACcCeCmxKy7lwV4S09BP+12FQps/WPgQRLgIwADMABXAPC8q0lgAM56siQFtt2RUtRf1xAagAEYgPMA3BSadXsAxl+necsyhE5H1XEAYAAG4OAAN8Vm3V505mABOLzAliH0UXf0AAzAABwb4HlXl8AAHGsB+CslXyKEHoQBPgEwAANwaIBL7oO07yUB7rfhb/FfAP/PsH4vgxVu6ag8DgAMwAAcGOBUdNbdSwL8F/6WEFgthO7VA2jPEBqAARiAMwA8l511RwAmgP4x3m0/32CC2yAO8AmAARiAwwLcFJ502x6AaYB9loEtcEvH4zYFBmAABmB3gAu+CfbHMH8dXQLgHFepSwhtK7BFCH3UHz0AAzAAxwR4Lj/rvopdQTvPbTIJoHOe+PU/Bh4CAHwCYAAG4JAANwKTrvlrGQyOiQa4ihA6HTcxegAGYACOCPCsMOm2cgBv4G0MH5L+6oXQIQYAAzAABwS40Zh1r3Id8K12f592okMthA4xTgAMwAAcD+BZZNa9qAF8qR3gSRVg40cCCKEBGIABWBNgmZ2AW7WZo/YMWrYB3llvQ/ZICwzAAAzAggAnnUn3KnQFbQDgp0kYYOPN0bYRQh8AGIABOBbAZ6FZ9wLABNAuAvMcFgADMADrAZyUJt1W5LxvYhH4aac9CKEFQmgABmAA9gT4vKtU4AcAjtwAm4fQPIcFwAAMwGIAJ7FZ9yJx3reQQas3wNYtcKIFBmAABmAtgM9ik67dWxketO4HaIBLCzzQAgMwAAOwEsB7uUm3VTjv/xxMvQC/6PtLCF2+BQZgAAbg6Fmi/WfO1QFXm0E3IWqBELp0CwzAAAzAmwK4FTjv9rcDamMOUQt7QujCLTAAAzAAbwpgK/NMOuBaF4GbILXAj4EL78YBwAAMwNsCuLsJGVNpBj1HKQZC6LK7cQAwAAPwtgA2ehWO0dTxWqO/TZhaMD79A6vAAAzAAAzA7tVrNHXsawR4ClMKbW/6wWmBARiAARiA/XPfJHQsNMAqLfAjq8AADMAADMC/Qu8iNHVc6gN4ilQLti3wNkJoAAZgAAbgom1nEjoWrRGrYK6E0AVbYAAGYADeHsAXoamjuhZ4ilUMhNAFW2AABmAA3hzAJm3n2epgaIDjPxHwX4MHoQEYgAEYgJ1b4HNVE4LdmKMVg/H5T7TAAAzAAAzAqz96HoDrCqEDlovxGRhogQEYgAEYgH8xOiGAq3oOa45XC9YzMjtCAzAAAzAAu7bAdgDX1AI3EWuhtz0HiRYYgAEYgAHYswV+NlyS7qsBeI5YC9bbkQ20wAAMwAAMwI4tsOXcUU0InWLWAi1woRYYgAEYgLcJcKc0d9TyToYmZi1Yn/5ECwzAAAzAAOzXAtvOHZUsA09Ba8F6DWCgBQZgAAZgAHZrgW3njuutBn+bqLVAC1ymBQZgAAbgjQK8sgVOk9LtgMaYo5aC+WNwG9iREoABGIABuJh5Z9ujeYvvb+BSMV+Erz+EPgAwAAMwAJdqgY0BrkDgKW4pmLfAiQwagAEYgAHY61K0Bji+wJFrgRa4xGNYAAzAALxZgNf9/NZ+wTO4wKErxX4zlIEWGIABGIAB+KeT7qo6dnjk9xYa4Cl0MZi3wIkWGIABGIAB2KcFdgC4jdwDBy8UWuACj2EBMAAD8IYBvmgBHHpLrCl4MZgDXP9rkQAYgAEYgMu0wD6Txz6qv+HrxP7MJzJoAAZgAAZglxZ4RuCa6sThnVS1h9AnAAZgAAbgMi2wD8BRBZ7C1wItcPYWGIABGIC3DPCaB4/PXsfUB/S3hjKxP++PtMAADMAADMAOALu9eqAdaYDraIFrD6EBGIABGIDLZNCO7/55BeA6WuBEBg3AAAzAAGzfAnu+fO81WAxdR5U4zM2PtMAADMAADMDmLbDxCwkjx9CupyLf8AgeKg+hARiAARiAi7TAs+tx3W+BAK6kFhxyh8pD6AMAAzAAA3CJR2+c277uTgIdpha22gKfABiAARiAS2TQz96Hdo+yEjzVUgw9Aud8DAuAARiAtw7w4mr2PzVdDIGfqykGj9g/kUEDMAADMAAbt8AZTk0b4gdJ52pqwWUbsrpbYAAGYAAG4ALlnOHZ37a9kkBHz6C/kUEDMAADMAAbX5JZ4LnKE1xTibi0wFWH0CcABmAABuACGXSmzu960Qb4oaJa6FzO0EAGDcAADMAAbFrPuc5N20kDXFUtuGTQ38igARiAARiATVvgjOfmpuvvQ1W14PM2yEcyaAAGYAAG4KAAC78muC6AnVrggQwagAEYgAHYsqCn+DKsf8JoB8Dbfg6rB2AABmAAzt8CZwV4t5ckuLIG2ClqSGTQAAzAAAzAUTPozzEKEnyurRhcznHVryUEYAAGYABeMRZuOJW9+9N7S2GqrhZcZuiqf4jUAzAAAzAAr4Bt2RzSFLhVEGuC66sPj9981b0f9AmAARiAAdj7XJhfSIt8eJEC+Jla2HoCvTyDBmAABmAAXp5BzyWO9X4TAniqrxYcpui638ewOIMGYAAGYABenkE/FDnY7l1nCbhCgO0z6LoT6OPxAMAADMAAnD13bAod7V1lJfhMLZBAL86gARiAARiAV2TQxTp2kSZ4qrEWzOfooXaAewAGYAAG4OwZdLEOUONFwU2VAJtn0LX7uzSDBuClF3/5sQNgALYckRaB/x5Xgfvgps5aMM6gsy0Bj+OY0rc+pfT9vwL8EAmAF4+pLfwPgAFYIIMuuQ+FQBM8Z/y47/33MWb5U8a3NlkS6FP//7eQKQ3ii8AAvNkBwABskUGX3QiqtMC5Pn3ff+/rfvzNz//0Dr6NM+gc+v7kT4+D8iIwAAMwAAPwmgz6XPSYp1vReSRHAt2VOO+mp9U9gf7l/qRp1M2gARiAARiA11yZ58JH3ZWcR/w//KXM7G2aQT8W5DdbBA7AAAzAALxi7MPMIRade4Ql4Ol3f//j6vSXTbP9oXjrmWExuAdgAAZgAM4tmcBWUH0pgn3nz+ufPBZ3nQrODwIJdK9wEIt/iATAAAzAABw6g/488EICey4Bt3/4VPqTTxN8CQHwV1ZeB8FF4FUAL/wx7AWAARiA68mgFV4HtC/zmmDHBPr65y2oSxNsuLQ+iMS+o94icBL5igAYgAG4/Ai6CPzZDZQQ2O+Tt29fugVyEPiqD/Dpq7lHklsEBmAABmBhgNv728ff/1gEFhTYLYFuv7gCm+7CGXQSynwHsQwagAEYgEUBvn8f/xzh5/98iGbQs0ZFv2WfRR68PsnXn4C6i9TCvwynHyEtu+EatDJoAAZgAFYE+H7/l7f93O/e1oVdBC4i8Cz0OcwFbrUT6FHqaAAYgAG4GoC7+8tPs8aX8lWhmUF/3rVUMYssvI94sb4d6I3OkpS/no9iHQAYgAE4PMCv4y+nvnF0bIOXLfzNKkX9dss5ibhURjsuhS8Zfw2vNmcpafnrKPAJgAEYgKMD/PsJOPllvsuu6WeZqm5zCuyyBLyCFmOBjRaBH0UeOM4gMAADMADHBnj8owl49CJv4cLfJANwToEnLX+t1wKMFoEHNX/91oF7AAZgAA4M8J/vJzGWLAtdgLP2wB4FsDLuNf0iLiZnSeXFQxkEPgAwAANwXIBvX7iFTi4B6MKLWmmzkmWvNdb40HupY/pLcwn4ZHBUg8giMAADMACL4NJl/OTGuaPUbmG5BH7Q89f4m5BcAj6ZfHkii8AADMAArIFLm/fqrTaD3uV6P+Ek6K/tbYHkErDNl5c0FoEBGIABWALgRQtus/1twLKFP7ENs/uQc4jNURsKbJFBqz2A5SrwAYABGIADArzQvW/2u1N2VVxQAZeAzZ4es3s94V7PuYPZ9zcoLAIDMAADcHmAl/rrIPDCq3ranMBPJS7IzN+F3BLwyfALHAAYgAEYgNf46yDwTYIjfYGNf4ptuJH1s5nAvZpyll9gElgEBmAABuDStKzx1zJxXNWJqbXAr96FZ/uBO8l7g/WLwJoLwC7dOQADMAAHBLhdaYWxwAsv64fdtgQ2fgPFzfTgrEpirwXwyfg7HIpn0AAMwABcGOD3tafANoVeuAOhXAbtLLDt572L3h1oxbzmN1EADMAAvHGA39efA9tmbGHON8uV+MWz7kyXgDvVo1ub+T7qBtA+ITQAAzAARwLYYveFxlTghZ1jI1firttCT9kvxi9N7Ea3Q2vvYQbhANolhO4BGIABOA7Ae5PbelOBFwKc9Gq89Ss70yXgd4fj02jNtRtghxD6AMAADMBxADaaVSwD0aV7Ketl0O2bW9lZVkWndl2Y3cKkcrQVaoFPAAzAABwG4NHqNDyXvyloBKvcTeAm96VYpgVeCfCjdgBt3aMDMAADcCSAR7v5dioOsGAL7PcgluGT553ehWF1czBoB9DG9wgLnsICYAAG4GIA7w3Pg+ES7NLf7yi2wF4PYs2Zr8QFBXEufwMzyDfA5iF0D8AADMAxADa9q38oDrBkC+wzSxnea3j16Da3ZOtOn34DbP4c1gGAARiAQwB80zkTNgt/T2ELvRzArealYXJ4KUADbN0CnwAYgAE4AsCdbFEvbjemrQhsB/DF79JIpc/eY4AG2LoFBmAABuAQAJvDUH4PfsUM2mWeMvugreq1YVGlQ4QG2LoF7gEYgAFYH+Cb5oT7ORY/HNbsNiKwGcAXz2sjFT55Q4QG2LoFBmAABmB9gD2unvJ78E9xa73IjUare3EY1GmMBti4BT4AMAADsDzAHiuTZiG0wNqo5dhbd1Bmv/m6+F4cqegtQorRABu3wCcABmAAVgf4P+zdwZLqvBGGYWPD3lPAnhpuwHjIHmrm35vKOfd/K6n8SaWyO4Ba3V/Lr29gNHKrH3dLxnV+omkw+hDs+xnvoSmwaAV8UF4dxU+KfZICOPCbEQAMwAAcAHCttWNUmo2NlcC2b1zbbbbfaq+O8ng43MJZm6onEdMSGIABGIDFAV4Up8OkYtQsgY+SAB+1l0fpIOcsBXDcV5sAGIAB2B/gekvHqAQu6M5qCmz6xT+rr+0u9ZdHeTzso1WbHLJIH3QKC4ABGID9AV4058Pk5u0Sx7vvU85RfX38pwf9LoBDngLYtAQGYAAGYGmAa66cIZyr9pvQRgDvPdZH+ViDAT65pJE55hQWAAMwALsDvKhOyP+usb0S2LCTuU0QBnap7t1vc/T+Z5oKnlNiTmEBMAADsDfAdRdO/Edwmi+BLwnCwG6w7xbqc6IOtGkJDMAADMDCAC/iGfej8AXV5neBLxnCwOyBLBbgySmPDCHHoAEYgAHYGeCjesYtBVi0BP4xy+X3DGFg9rjw7imsVAWw5TGsEwADMADLAryoZ9x/X7eiR4C7ZMjvhZ5w3Apgg+G+B/CQqgC27EEDMAADsCzAR/2MWwpwvU84RkiSHeDiB7J1ADxEHIMGYAAGYF9MFv2MWwyw6FeRjErgTaoOdPl435u2PlcH2rIEBmAABmBRgD1WTexHcJovgTdu608jHMY4zyZHE3oABmAAbh3gRX1STAAWFXgvMrsO30EyvBn7OIBdUQg4Bg3AAAzAnpT4LJryU1DFQGg2oSeV5OGaPEtL4DDOTq4ozP6nsAAYgAHYE+Cbz6w8wge6lRR4r5I8FleA70kBnlxRGAAYgAG4bYCdEu81fqCaTWiDlG5xCNo5d179J21IdgTLEuAzAAMwACsC7LVmynvQ38VjaLUE3hgMY3SmxX+0fboOtGEPGoABGIAVAXbrPBaXwOWnhHaSAk8SAC/OAN9TAjw5q9ADMAADcMMAH7OkXJOhSjahRwWA3VPn1X24c7Yz0Fb71i89OQAwAAOwHyOOncdSgN/+Dvv/Xb8E4/6v4v/qka4DXfx9jBiAT+4szAAMwADcLsCOnceLwFglfxN6Ecgd3r3V0jsRU0y6z5JZD/oEwAAMwHIAe66YQeFh4UtQ4L8Ecod/wrt6x0LGDrTZOWgABmAA1gN4ypNyLY5BdxavQ8mVwAbxsPdPeGWjHiMoOwe4MDu/hwTAAAzAbQJcelboGH57NEvgTbI4sDgT8DrAfcYOtFkPGoABGIDlAN6nivFjsyutrAQ2iIcOgEUBHpzfQwJgAAZgL4CdM8pGYrgTAAt0oAuHfQgA+BwCg/MxaAAGYAAG4Bp7pSY5pspVlrjuOQEuG3fAZuopZJZmAAZgAG4S4H2yIJ8E7lCda4oFeFoBwDk70GabwAAMwAAsBvDiHeQbkfHKHYU+rhHgoji++QMcA8Pg+x4SAAMwADsBPKVKuZYVu5zAUyTA3x0Aq24BW20CnwEYgAFYCuCAvHsXAViuCz0FORZYAJflvFcBHpJuAVttAgMwAAOwFsCLf5RvVABW+03KYyDAhyiAS+7Bq0+PfdItYKtNYAAGYACWAjgi714/VNa32qcJlziA91E5r+Rx7ODOWNQsGW0CAzAAA7ASwBGrpfANIMtHht1DKvrHuP3s76ict8sE8DmMBgAGYABuD+CQwucuA7CYwMegKY3ZiihPeq8CPGfdArbaBJ4AGIABWAfgmJ2/rQ7AYgIvKwT44RcLc9YtYKtNYAAGYABWAjhmQ6tozLeuXYHHKIAPcbRs/GLhMy/AAwADMAC3BnDMzt9QZN5eajQiPeh71B+O3QR2BvgcaIPnL3EAMAADsAfAt5g4vygBLPU20uKPWOwZrLKs91r8DpkBnh3fQwJgAAZgB4CjGo87KYCVBH6zB70Ngj96Q8IZ4BMAAzAAA7AZwAm7jjUGrSPwIQbgQ2TWu3gl+yHvFrDRKSwABmAA1gF4jAr0om3XCmlw2IjE//0GwNXG3Tu9RlunUQDAAAzAbQF8A2CTbWnDa4UAD1kAPofi4PhLHAAMwADsAHBYoO/kAFYR+D0KHyHsxwP8syKAZ7/3kAAYgAG4PsCHnACPXcMCA3C92ZoTn8ECYAAG4MYAHuMiveQW1vr5TI2jWLcAgA+xae/iNFtz4jNYRqewABiAAVgF4MC656H43DD8ZC2BcwN8rbxWrHZRYwEeABiAAbglgAMjfasIcNf9il8BP++Mu7B2D86ZBfn+5glwlx/gEwADMAADcMnwa37B6dc9xxKwDYZbWoA9K+BzsA4ADMAA3BDAkY3HneqDwy5c4G/n2RQA+O4yWUNygC1OYZ0BGIABWAPgMTLUZe/hLroNffQHeAnOexeXyRpSH4IGYAAG4KYADk27D917GCzwz+QN8CE67z1SADwFz1IPwAAMwO0AHBrqW+GB/45tQ7sD/BGd964A7DB+AAZgABYCeAJgyY3gb0fA/r720Xlv55Lt+9SHoAEYgAG4JYBjF4rfR+jeub4ugWvgdQ8fZX9wBOAMAJscgwZgAAZgCYD3aWPdAYzhK24NvP6V5vUC/Mpc9bkPQQMwAANwQwAvsbF+EQcjsAj2BngKT3x3jyieswNscQx6AmAABmAFgIPT7ka9YhvCBP52Bjg+8T0SAHxqAmAqYAAGYABOAHA37IIWwR6AAbjCJjYVMAADsArA+7zBPiaAwXUTOD3AuwQATwAMwAAMwADsKMY2ZBW8mOuHsr82rgTg7IegTd5DAmAABmAALruLXeMCj158rQrgGYCfbKQDMAADcGUYwjtqmxQAd93P3X0V7NcG8NYD4PQVcAfAAAzAALwugLvtj/syoAVdId1nfwsJgAEYgJsBeAHgp4FzF3hy4uvv6yaQ+R710/0AwAAMwACsAfDrP7cktLvqPtarcxt69ARYIfPd5QE+CczSDMAADMBNALzPHO0BPdK7MMBDfoAfAOwD8BmAARiA4wE+Zo72gOp999tzGbx2d6iAVwJwD8AADMBNAPydOdrHiOH+fjiug9ca5PkBvsoDPAEwAAMwABsBvMRH+yMXwN3ul9g6sAg2kYS5BWAABmAABmC/a5MM4K77h9tO8OgH8AjAAAzAAAzAAKxuxte9PYD3qQHeewGsMEsDAAMwAANw9BzFFW1fF5918FIWe/hZLwfw86/T9QD87P8BwAAMwFUBPiikk5RmfOmdwlpzBfwBwAAMwACcDOAjAEsLfPADWKICfn9NLysCuANgAAZgAF41wN3k0Ya+uQE85QbYqQI+AzAAAzAAA7BA0bbTAvixZoAXAAZgAAZgAPYL9/Ad7PoCH5yCjQoYgAHYCOBb5oUEwJ4ALwrhfkkLcGnVCcD+AM8ADMAADMAA3ALA3Y8OwLSg1wLwDMAADMANAKwQKrkB7n7uVQV+/g4VfgyJFnSWbzEAMAADMBUwAP/3FtwBeDUt6GYAnmpHFAADMABTAWcXGIClWtBUwAAMwABsBbBE1s0OcLet+H2k578X2QTAj+rDB2AqYAAGYAmANRbJNjvA3VBP4Of/xyYA3lZdLQBMBQzAACwDsIZgQ3qAu+FRC+Bj/WmUaudTAVMBAzAAAzAASwj8/Gd+ygDea8wjAAMwAAPwSgD+AWCzf+JSSeBb9WlsAuBVtaB7AAZgAKYCBuD6Ai/Vp5EKmAoYgAEYgAE4McC1BN5Xn0YApgIGYAAGYADODHAlgY/Vp5EWNBUwAAMwALMHnBrgOp9mAGAqYCpgAAZgKmAA/sO1A2AqYCpgAAZgAM4SKS0BXEXgpfY0UgEDMAADMACvFOC3Z0kP4BoCAzAA04IGYAAGYAD+4/UDwLSgqYABGIABGIBbEBiAqYDtAa4eUQAMwADcOMCT4uq9GwP8bCYDYACmAgZgAAZgr1m6Ka7erbHAz9I4fDSQL2lBUwEDMAADMAD7IxJZAWf/HCEVMBUwAAMwAAOwcRPapwIWAfhavQLuAZgKGIABGIDLZ2nRXL87U4GPT9LYBMD36sMvw+sMwAAMwAAMwKqnoO2b0ABsOfy+AYA/ARiAARiAAdijCQ3AOi1oAAZgAAZgANYGeAvAVMAADMAADMAA7H8NVwAGYAAGYAAGYAAOENiwCf0NwDIt6E+JWQJgAAZgAAZglyb0k+8hUQE/N035AR4AGIABGIABuN4KcAc4+aytqQIGYAAG4BYA1lgkDX0PuEoJ7APwSAW8IoDP1SMKgAEYgFMI1ibAdiWwD8ASX2N4P5y9AFbo1PcADMAA3ADAPwCcoQSeuurpUqQC3tZdLQAMwAAMwFTAawDYrgR2AZgKGIABGIAB+LVnegBuvwSmAtYB+CQwSzMAAzAAAzAAV13HACzYggZgAAZgALaJFfaAU/SgaUH/ORSogO3/DQAGYACmAk4L8DYTwBIvAl8dHh8cSsfK1ycAAzAAAzAA+5TAS1c9XYoAfHdI9wAMwAAMwAoAayySXbMAG5XAz5V3AOzCFwADMAADsE0FPCmE+6VZgAcAfu16OKT7OTvAAwADMAC3ALDGj0G3C7BRD9oH4CXzfAFwhdeZARiAAbhqrCgk3YJJkl/Ju0QAjwK0JAA4vmnUAzAAAzAAh0/SXn4lA/BL1/YDgAEYgAEYgDMAPOov5QcAuzyv+AF8Cp+lGYABGIBFAL4AcPMAP/d/lgIssKPuAnAPwE/uZAMwAAPwH67NR/ZV8v7GXwKAbXrQLgAL7Kg/PJ4k++wvAn9SAQMwAAOwFcAfDQNscw66froE4DzHoD+pgAEYgAEYgL160FTAhgAPyQEeABiAARiA48M9A8AmP4blUwGHT+fuIwPAU/AsWQD8XB8dgAEYgKmAAdinAgbgFAD3AAzAANwGwArHoDdNA2xyCosKWAjgU/AszQAMwAAMwPFzdMuwmC1OYflUwOGbwD4Ad5+5j0EDMAADsAzA2/QAb9KC8dRlcQrLpwI+5J2ql74qkhxgizNYz1XxAAzAAFw3WP6ZWagUi9liE9ipAp6Cp+rik+0/Ux+DHgAYgAG4FYCPmaN9NQAv1dOlwibw8PAJ4xmAn3vUAmAABmAAzg2wxSmssXq6VEgcw0cOgGMbBT0AAzAAtwLwPnO051jN9zQABwdDFoBPobM0AzAA5wd48ZkGeYBfOr2iViGuYjU7Ahx8CuvqNPI+9SksAAbgBgAefaZBHuDwgzcFh6D3OVbzBYCrT9T3egC28PfJbWwABmAArpzfEwM85ljN2zQAB7+UdvkXe2ew47aSQ9G2S95bsLxvKD9gSc7egt17C0n+/1dm5mUG84CXpFVVl5ekTCGbrFSiWDy8l9UyaeF7z8egUwA4ABwANgTgnXMAz1sH8M4PgFUrR5pJC0+941NYkDNYKzV8ADgAHAAWru93v8nuBMDJDYC7m9c4ZSng1Ds+hTUGgAPARgDcBIDrAXzym+zH19jORAWsWjSvtJLXOx4CB4ADwAHgADDsagLAdgCsegqLsFc2AGDICHilhA8AB4ADwJK3MDAErugfXmQ7MwH8VAzTQGscer9D4BQADgAHgE119b4B3GwfwLMbAKuWDp5yH/0CGHIGa+36A8ABYN8ATq08gJNvALfbB/DOD4AVq2ZyBOB3tSiNAeAA8BYAfLJfVEgK+OQ2UQLAWwJwTZQeZBmpNwTuA8AB4C0AmFO9EyGBk2sApwBwALh6WpO57HofV227YADMKC0B4ADwSwC4+oyPqgdd8Q47L9vZEYAVv4VFrHjJ7SmsfQA4ABwANjXXSpWh1hWSL/BXSAFg8dXTAfyuFCXMCPgL450EgAPA+thhJPDOreh5q/r6wsnLdvYE4LPLIOVWvN7rELgPAAeANwFgjn95YCTwwKjuBvMkFLAAgNV+nnJxBWClITBoBLxWvweAA8BiCpii+wYPANbcKTX+eShgAQCrnQigLnp0OgTeB4ADwBsB8NF66V2t0WsBrDkEbqy3UNo+CB3Ad4cxyrazRqdD4JH6V0gB4ACwnbGRXQV8cAzg714PjzH3MxXASr7CjgrgvdMhcB8ADgDbAXAyH6QdI4GrC+/NZ5pcXmU/UwGsNARenAFYZQgMGgH3lMoSAN48gKtucrMeBR6Aj3ppsgSAjQFYKaxV9eKuQDKNMO0DwAFgSwCmds3sF9lRtgnvRDjaPT+9zH7mAvjmLREKlpx6lx70yP0rpABwAFjuJuYBvP4t+j2FFQC2B2CVbGjIBa/36EGjHOgAcAA4FLAlAKslzBIAtgfgi7tyoQJgfphQDvR7ADgA/BIKuOYMVhcADgCrAPjID1DlQX4VM/edHqUxABwA3owCZkRpx1lfNYC1hsBVdffiZjsnXwBW6GwadvruPQ6Be/JfIQWAA8C+ATxw1ncNABddH6TH3PkCsEJrs9QtWMfNZYcJ5UCvn14HgAPAcje5GX+PN84+0cyYQRUTDetbWt4AfHRWLQr6x9T786DHAHAA2BaAd+Rty3yPHRPASt8frBE+9R+MWFg1whuA6R50Q28YUu/Pg+7Zh6ADwAFg1wBOhBBUO7mKHvRBlRKHlvU5aW8ApnvQCx3Ab707D3ofAA4AbwrAF9OFN4OJaa4G8EUjRwZVAC+0IuEOwGwPemlJrSrWz+V60DAHev2yA8ABYMHKdjNdeDsWyfQ86EUTwIfC4zuvAGCyB13pQLdaOON60D39EHQAOAAsWdmepgHTsW6ktluSasuwcHLAJYDJHvSsAOC9Nw96HwAOAFsD8EG1hMu+Ri6ANTzogyYjDsQqsbgDMLWCVK9bjWdMDxrmQPekNxMA3j6A6wJ1Nh2DHAA39SX3yU8RVf9iJj536w7AVA+6NnuL9nEis6y6S+kDwAHgbQFYWvXx9Hn9MWiNIfCsuL0bZpnwB2CqBz0zgvOPq/flQeMc6IzJdQA4ACwZKGH1w/uFFwCA+R50XXgqt/eOKf0dAvjsp9ppAph3DAsngDN88wBwANgxgBfeS5zrSy7dg95pEmIm1okmACwanrLWcXQlgVMAOAC8OQCfLIcg6yXWH/Phe9CzYr/QMDuPnUMAEz3o6uax7LZj7+kYFu4IVk7PEAAOAP/5Ggy3+U3rCsDszx81rSKAZ+Zu8aiAecewGqXETb2jY1hAAZyz4gBwAFhUXFwMV5atA3inCOCGWihcApiWDrNSq5B6Rx407ghW1tg6ABwAtlvFZetu3teZAaew2J8/qkuQM/DeT+uIUQHwyUet0wYw5xhWHwAOAG8QwCe7EeADmCuBK2XhGXjvs+2tsG0A1w/ISw8vjH4kMFAA9+8B4AAwDMCaZTwArJgfZ+S9n6YfdfU5IyyAScfi9dJ29COBgfzNahgCwAFg2UgJMqeyN+joRZ7rQc96dGhcHcZbn6dgAFPSYdAD8L73IoFTADgAvE0AC3b5C/UdIgDMlMBXxRSfuWLvCngzGgqYkQ71P6RZ/gWZpODpqmr1/GPbyWpxDQAbAXCy2+XP1HeIOAa9btJoovB2FZu7cXUWQE8BMyTwVXGVSQNp6gI4yzFPXvr5ALBTBSxnkxy477BxUnFB0emwmWn4LICiApaXMAABXJG0KkzTFsBZej0UcABYWPmJJUltb5+pRiEA5vWsVz0AH8i1AgEZHQUsP8VDuPN3fbA5EsB5E+tQwAHgT66dVdd14HYGkDJPOzdRvdo7ODEFHxzSGukoYGkNw+tNfnntfUjg0SuAQwG/AIAHo8ipri0aRidtz1Qrnxuah0+7z6qngKUbMkRozgYALCqBsQI4b6mhgAPAwgBurdYWHQBzJHC98rmh87ITe9iF9lrwABZuyBA5e7KANkkJjBXAeSsNAAeASyZ6BmJFbwwgQkuQQ1BSlP948e8M4U5qz0Bs1iMnrOSGrNFeoZKxqymA34kb9f7m9goAP2m13GZzf1KpZiQP+qr30mZ26wH5RtmJsxfI+TBrL3B0IIGx/M3sFBK3hgWAXxDArU3EHHPvCAIww4OuF4XFvfXvoyQlga++AWz9dFoVgPf2JfA+ABwAtgzgeq9XJFg7OoDfQBWXIIHrK+9NICtlJDAGinoAFswH/fWl3rwEBvO3Z2ZvADgArOVBt3wAY05hMSRwqwbgP6FfRgIfvAP4QyoLdvrpmtSGq3yTvKhPCAAHgF0CuL64KE3UGBIYUHlFklKkExu8A1gsHyz0i3rakt8hlLQJlRl1CQAHgFWiNSggBqMo2u5sPLkrUPln71tEAi+Ql3JRBLBQGd1ZaA/G3rYJjRbAuaPqAHAAWL7qdAYZ06HpYmfbACrvUSYnBVqP1PoH8MkwfysBvFeEG3t5AeAAsE0A48M1qCDGwcFXECUKAXzg75thAwAWqaM2Tiyk3rIEhhvQ2UsMAAeAP82R2R6AW9cAlt03CCQVvrCG33psAsAnfEJcQUurda80B6x8A5oN4FMAePsABtQ4tAetJMpnWME1LoBbsZR8gp/2AMKMLoDxCZFQufphinHYRgVvQGe3CAHgAPCn16KDO1nZozlWEz0IjZCEhQ3TiiE5WgIvVACKARjuicB6xZspyEFNaLwBnd8hVGbUOQAcCpgvgZNSxcMBWG7jQBhxlMtIbOsBEsD6AAab0CgDuu2etiiHJPAoAGD2dr0EgLcP4KuBRhou8i6K5V5SAl/1VtfwW4/dVgCMNRMPMAFc3zkrS0wuf7+wARwK+AUAnExsZOx6zhpZ8/f7CxH4K6T0SiYk9MGXzQC4/WbRgAb0BaNRAksY0Nkj4OqMegaAtw9giPADRmxQKywLkMAyBjSm9BYVuYb/4DBL4qkPYKCb+B23qJs5AH8xzN/87iCpN0gBYPMAhjTUnS3IlCUubgjcziK961WxOVj7WoDfPl7I8BMF8BlF4MZUV5B6kwQW4W/+1zJrM+oYAH4BAC82trL+lPOArLcGc6JmVzfCsRd9HRYAjPp59QZnQCPaZv2PXbAGwCUrS/ovKAD8GgB+mHJZy9oBZAHunviUeCieEJv5rceyLQB3d2v8hRzyGfUnrST+FiwsGXhBAWDrAMZ4WqCYQQRwIQOgBbi7oDOi4eKo+N6gTMAJ4PObBQC33U2/LOBHjKOBUSuHvwXrSu0GSBQAFgYwptJh3JKkWlgGa9VNovaepO8NEv/L1gCM0DPfoetBjBhTb43AkxB/e4WKcgwAbx/AoMoOCdqwHQCj/4p+VmwMGhHgsQbyJysAribwYq0hEDpvXLN19lL8/aJQUboA8AsAGLOtEbkCKoFP3duLEFj11xJnTvyFWGNGAdfukaW1B2AZw/dij79Fs+nBxCsKAL8CgBFRG3TJB67AJ0MpXRWchtUBiQjg1auRB3AdgdH8PdoFcDGBRzH+Fi1psPGOAsCmAdwYKC7QCnhRbgAECAw7fHNm3LzehF62CeCaTTKg14Ipc6k3RGBB/vZvAeAAsGUAV/+lY1JkzM/rCi5xEyobcAsreEkNv/WAij1LAC4+HZ/g/EXZm4ZGrpL8/aIC4DYAvH0Aw+y+yrgN6gCGl+CLNf6WuMMzvfU4qCCPAuDCT2IJ8Bd1wGe0Qrwkyd+iETCgpN0CwJsHMMzfrNvSk6LIkyj8fylBCIEbBRrV3r3qwaECeHU/xgFwey5oTiY8f2Huptyx47wcmnrR66ID4HsAePsAXvTRhyx/z/I1zBYJnBYFGtVmYs2Df223DOCCn0aaJFaBqnJJDnqTHf4WjYABAMZ/0CcAbA7AjYVNjfuV8YqUXeBl7n6xxN+CFqk0Ocp/fQDsQ9zNAbj9lhebb7PAGnB/Yio5eF0bqGkU5u+7EoB9etABYCUAP4rV51dYkak5gnvFF7pqDwnJ34LmpPi9lBI4gbugpz0At+cMEXz4LrIE3BF9UfatEsFJGr+lp7IbA/UjAGwewMDKU0o/oPlbk7EHfKGr/TLjD13ZU1FCCgmMdiFuBgHctj/WBufHLLOAJ6xUJVn0fYrgNPXyl9pczaUHHQB+MuP196vw92C/26gsabZGYCh/C5qTmoB8lNSOr+jwX0wCuP34oSh/W+R32pI0/CZ1/Jb+SGJS2bMBYG8AHoAbuyh4D+0FgML+awRUrAhcf2/crfTIr/LwIUD3ZhPAa+Y1h49Z6ubIH6yWN4Cni9bst+43EhEp5VECB4DzALyjlhXJIXRtvl5FKu3NCH/zY1P3ZrqHfvwfZgH87/D8MTHSY5a7N/I7qXsGAn/B4GnqWddFD8AeJXAA+MnPk3LLtUEWmrrTnY1QpS3bvg/0OuiOQOaDC4wA7nYB3Hbd47cjm+Yxd4K3fgJrVSJR8Ms0pf/5zkT4ljvQmJRyKIEDwE9qwOoIDOVv7csTEh0lo3E8jW78fiRL/V8f+MjfDAP4rwA9fmHUNw9J9YsG8Fu/9UsVwA4lcABYE8CZBMby1yiACwgsoAZvCtHIUP+NRPCtA/gng//fp6T//G+WvuUZWqz2WwfwRRXA/iRwADgTwDvw/s7IGLDpW/t9gUaq5M1P9YV0SsF46iRh7jOrAfhnfnT//Ue5oAKY5kGrXcWRWV5TAgeAlQG8nsCHdjYFYDEJnHnuRWIBR61YnPUC7wbA3AsL4LdwoH9zDZjXFQDeOIDx9X4lgRf0fW92AZzRlsjo8NzYNMwnF4p7AFjegWb8IZJLBxpX3wLAGwcwvvyt0XtpaM0BeCdZ+NaJ4IsQjFR7kVP6UyKIOf+3ADABwCkALKqA882rALAvAAtg5/RZ2qbJAGR4Q+Cf1/TpZp6+Ct26U47EfZrITxwA5jjQG/egyx1onMN3CQBvGsBXPmymwQBkSNPXv6/wk6hMFlgkZQp/m/4B4UnwifPy4XUA3P2LvbNZbhtJgnDTTd45AeDOGL4AREh3MAjewaD0/q+ykj0zXu/IXhOoqs6qzj45whNj9l9+ldkAWlyuQmfQh+XjIqerPQEcGcBJCTbWoNkXH/nfyP+GnzFYF0YINdlHWfZjUx5uAtgggQ7+ItKabF5OS3sCODCAs5IO3j9nTdbSXYFsbWOggM0nDM7KMGrRChE01NQDYAWBYwL9aRO8Xu1CAEd2wE9qEjj86+7T+11N3AVGfmcjgs3Le/uLwsP9rjgmy5bENgRq9gSwxRFw6Az6ACImFwI4MIA1sfP23v4WuY8/g2drN0OD9va1mZjN3nQBOkRNNQBuFPTqCxNodVm9zgRwWABrq8/1G2pedf+VvcTQb0Kq7oO1SQwD/EcigJV2STUZ9JoEWvhor50J4KgAVvV97R/fv3el+q09kQW6sxRDq28PPjo0MQxwQwCvz0Iqz6APq4ZFVFbb7o0AjgrgpwjSArF8IqhuEAO8J4BtEujA3+LAOs96nQngmAB+obQUOARGTaBjGGAC2CyBDgvgI5iWtBcCOCSAI2BHCMC7gKr72IIIYoAfs/21ALgngM0SaI2dNF0IYAI4srREVOLZcvX5PJKoBMA6CXTYM2DAYr6dRgI4HoAD+D6p2v6p8gR6WyVrKgEwE2jDBFpLVaeJACaAw9b28QBcpwHeE8BWCXRUA9xjAvj/beqvO7glgD0B2H8GLQbgeFL80HrY1smaOgDMZ6AtE2jNYvbbC4zt5wp+/vhrApgA9lnb34KpbgeiGQQwDXBNj2CVlZKRAHYFYO8ZtGBtHy2DrtMAP7ggqgCwzqU6YQ1wX1rI10w1AewLwN6dj+DT+cFeRHrsMCgMgC8EsOYmqcAAH9cPDR0wAVxJ8DoLDn+sDJoJNAGsmUCHNcDrE+iC5WzBL0cTwLOvtQIXrsXKoB9aDc+1pq01AFgngeZFSJAATgSwLwD7Dl5FwzXZW0xogD0siBoArJJAhzXAAgl02hXbTwSwNwD7Dl5npPGHavsqDfDDC6ICAOsY4LAXIfWulYQAdgfgDbUlYgb9yGKIY/0fXhAVAJgG2DqBLgjgCwHsDcCZ2hIwg+7q7HeXCGATZeNNwJiR0kgAewOwZ983Yk0AUHvMCdb6ElINAFZJoOMaYJnR2kZRRAJYH8CbWjBTUwZdaeUxE8AmoWRYA3xMrgGsc95PAKsCOFNbwslx40QwpPUnEcA0wOUNcLFDnYLPYBHAix8Jduv75OcsigXu6wTwSACbSHJYA/wniJQTwDUB2G0GLT8Dmxiq23gRDAJYu+1pgM0fwVpPIwK4JgBnakvpjVPYAAexwG0igPWLVBpg3Ep+JIAdAthr8KoxZSEscGO/9ghgGmA+gkUAE8D1AFglbgkhyEsAHMECjwQwDTDAI1jlthMB7BLAPlVojzgHThPoEB1vEwFMAwxhgEudZRHALgHs0wLrzFiAzyI3izq+IYDjNY09QgOMW88mAtglgJ8rkds6nOAyHdlWSZvYANbYIzTAwPUsAewTwB4/Bqw1YU/eVbeptfJIBLDBHgnL3z8PksNUpJ5tCWCfAPZogbUmwX0G3XuSDMHWEcA0wBDvIBU7BN4TwE4BvKO4RHGCl1o7PhPAPAFGMcAEMAEcO4PWm6/nWlV357vjiQCmAYYxwOlGABPAcamjeNrh/Hbcvtj6c5hAhwYwDXBBA5w2XkIgAhgBwN6o0yhOg2sLvGZgXFvgmQCmAQZ5B6nUZkoEsFcAe6OO5nS55lBfcAH6M8CRAUwDXOwdpFIriwD2C2Bfz8CqPm/vOYNuai09GgKYBhjIABc5BCaA/QLYF3V0Z8vxCzl90RXoLoEmgGmAdQxwiQ8KNASwXwCnDQ2wfw41tZYeXSKA1QWNBhg7TtoTwI4BnCqQ2/CPYfW1lh4zAUwDDGWACywtAtg1gB1Z4BF8JrwaYLcWuEsEMA0wlAEukEH3BDABHCGB9pXHy+7AMwFMA0wD7BLAiQD2DGA/GfQIv5q8GmCvFngmgGmAwQyw/dqiA/YNYC/a2+JPhVsD7LPnXSKAaYDBDLD5i0htIoBdA9iL9lpMlUcj2FTb85kApgGG+Qp0qQy6IYCdA9iH9rYe5sKtAfbY8xUrIiaAJxrggl+B/qftCGACOJ727k3mwp8RbKrteUcAq5eoPAFeMGZnApgADqe9o4vJcGuAHfZ8JoDVd8ifNMDoh8AjAewdwB60tzOaDG9GsKm252tWREQA0wBDnACbHwL3BLB7ADv4BNTsZDasKSS4/W6+gDMTwOpSdmIADZ9BE8D+AYx/HU5nNhu+jKDk7vN1KdIq6x8QwDTACK8g2Rfxhd9CIoBFvCG87TMzwL7uh2rc6kbZFREQwDTAKAbYNoNuCOAAAEbPoDvD6fBkgWV1xJMFXqc78QBMA4xjgE2LeAI4AoDRzc9sOB2OLHCDtRL9lB7xAEwDjGOATT9pSwCHADC27etM52NbCYU893yl7IQDMA0wyCtI5hn0TABHADC2+bFdZG4scIO2FN2UHtEA3GpYuhMDaAcWuCeAQwAY2fx0xhOyrZW/bgi8tuvRALynAQYKoAlgAjiU9I7OZsTx1nNSe/QE8A9NYxPQAK9oGwKYAI4ivfZvurnAUFNv7bE6EgkGYBpgkG9g2VvgLhHAMQBsWLThz5EHAvf11h5zSQA3tyoq1LAG+GCiIBsCmACOYX5ah3Ni0C71xu/rRWcNgLtdDRskM4B2YYEbAjgMgEHNT5Ep2saH0M96jk/guSyA0T6arbJB+ATWyhV29rIXCGAUAGOan8nlpDjeeDXUHusAvIu/QRYb4OMXBtCW24gADgRgROkt9a1xcAxdWXuUAzCUBVZ5BXj5CXCPfXh8dCPrBHB9AEaU3tHprDh+9AK89pDo+0oAI1lglWcB8grAZQbQdtuo7QngQAB+ros0v2wvyATWrXtfofk7lwcwkAW+qijwKsB9YQC9do050EcCWEGM8T7CWDBhAb4h6q1i9z8nAADDWGAdB5TXJbwnBtBWYkoAhwJw2oFJb8n1hftJ6K7i2kOm72sBnF5AhkPnLZTFBF3J70ABtFEGTQDHAjCY9JY94YDF0Iy+JOH7vhrAICF0g2iAYQl8sNUPiwr+QgDHAjCW9BaeHVAC3/V7PqASWKjiXw9gjBBap0BdaYBRQ+ijtX4YWOCZAA4GYCTotIUnJkdmUPn4bEnfexQAQ1jgQWfZrydcRiRwxEMsAjgagC3vkoafnE1gBrk8AJ8TDIABLLDSZwhPAoTLtR8AG5WxIwEcDcAJRm3Ln2+kwAzy6P67hAPg8s9h6RwASxjgBPgu0sGhtMNnhASwgiKj2D6AxQWIIbPHHjeB+SsC4OIhtJKlO8lEvKfKD4BNLDABHBDAKLYPYWrgMNTW23XJlS4C4F1I/mYpxJ3qPgA2scAEcEQA59pQ4+gsdKy365LmXwTAZS2w1j10JynE5coPgC2q2JEADghgCO+DwV+wELodq+267IqQAXDJd/a0jiKyXMabyV/tJUIAhwQwgPdpRxAAQ72XZTwoWO8ijXgALjdA7aw05yfBjPdU9wGwwRIhgEMCGIDAMPxFIrD11ch5AuKvaOeFAJymaPzNoow7Vc9f5SUyE8AhAZyeCxO4xeEvzlmo/aAAEVi281IALhVCqwmvcMhL/qouEQSZJIBVNuMTA2i0s9ASgwJzDCzceTEAlwmhr2rzLQy5XPcBsPYSIYDDAjjfSsrtJUE1iKtv1FJH/K7L71MxABe5O1nvNsqTNORy9fzVTNAI4LAALup9rj0WgCE+z3mpt+vylk8OwAVCaL1vsWT5lDfXzl/Nh0iuBHBYABf0Pi0af9PuVh5BhQYl3wLyVxLA5ldod3pRyEmBckNZ/g4A8qGWkowEcFwAF/M+7T3BtVwrfyEI3CZgAFsfAyvyd7FbPfzq/zrUzl+9EHpPAAcGcC5E4CYBtsJnoU3BUKB48aGQiEgC2PY9Nc146KQT8xZ8GemIoR5aK6QngAMDuJDyNn0igaF22ks4/soC2PIYWJO/Oga4JIFB+KvlZSBe1iSA9SKpgfz93komsYWDtLIE1nj6TBbAwzkCf7UMcDkCH2HEIxPABLAP5UXlb8mz0OIHWbdg/BUGsFlWpMpfNQNcisBHIPXQscAEcHAA2ysvLH8LYqivt+taTwQIAzhtbAYja86xngEuQ+AjlHhoEHhPAEcHsLXyIvO31P2vEGNyC8VfcQDbEFh1JWga4BIExuKvSkhCAMcHsK3yQvO30HcHZ4y+n0NVH+IAtnhpT3d3qBrg9/bFlr8HNPHIBDABDK68TQJv22r5W4jAPaAadpanfGb8zeqk+1I1fzUIjAAvAlhbordmyntN8G1rjKEyH4D+vNnfjKT3zJECgJUrlEk5HdI2wMn0q5SQUZr428AQvSKA5yDQccBfawIj8deewIrP/GoAWPXaSu3NkS2sZq6av/IEJoCrALARdFzw15bA04jVd1sCT4oLWwPAigRu1TfHyYR1RgSGFQ/ZB2owLk0ngOcQ0HHCX0sCT3B9tySw6oJQAXDKSuOjH4Rko2eN86m6x5//u8le3LEngCsBsAF03PDXjsATYN+nGPxVArDSvTcKUUBOfQEDvOpfCsBfYQITwNUAOL2cyV+zwfjmet4Qu57fjKoP5d5rATi9we+NfhiO30g1DL2xAf5oypcjDdjasbsRwATwEui8kr/fB8OAv/d6+25QfagBWJzAskORhx8d6DAYG2DlGPrYo2uHIIFniA4RwDbzoPkpZGf8NaBQd6+37yZnnmoATm+iG+UqORR5+NwymjwCbRFDDw60Q47AGP0hgI0KofykJbcvyV0bbqoEavp6+6585YA6gEXP+V4kh+In4e9xOFm/7qPzNPRxcKEdYlaGAK4KwGoE9rFtrMqRryPS16Egn7eLQe81AZyy1PuejeTWUEh+D0g/xkH8/HfnhSo0jP4SwGZHAVnjfuDGJX/fB0MtisUfkfzivfpQBfD7RjnDjYTGs0890O9xg1+xCg3kw70E8Gz3S+UJ3DjaN//TlCjUeRgRvRjapvrQBbBIQHIXHQmNY9cD0E8afOmIBIH3BHB1ABYXXmf7xoBCdx8jovTVJ6t6TBvAq2vVTrYQUXnsae1cyeXQR3cyInCCRQdcIYBTFr0QaE6uWxa/HamtuO+Wp1r6AE79CgS3Wba7Kvw9CExD6E8//3p5BDkCJoCtKSYnvF1y34QpNLrqvHj4blg+mPzMHUgVBnzjwVAnfiVMMAFcJ4DF7l1zbn/lKbR3lwC4Nf/ZqE5YUKDJJ4s6r90ehH7dSgQPfqUjE8AE8KK2EUDwlIK0TSsDoLPHSv5J6ij4PLrRvseM+vaR5dFqfILkBGyA1yJ48K0dNwKYAF7Untf95nYaU5z2LFGPOA3S8iSBYPPlYAfgjyGafusOi/f/TKOrSvw9SP7GZZ8COfbupWO3/HYTkGewCOAyUe4q4Q2FXwkKTVfPGrIWwdPFVfq35Kj6dfr1KLVK9NW7glcYfo8/ET3E0I5pIoAJYFPhbb26PZ1K9n08rr47v12F4AL4tQfw11GaPqXwB3v1doQWfxUu/XuEwcdAErIQwQRw5QBeiOCI+P22jc4L8RsgDtgureNLFR8FAPzXlvlX051+rXsPdH7t8DvHwcehD6cdC5bhBeTHE8BzQeF9ffC3/4e9O8hNG4gCMGwZ5QbJHsUXoGOxb1WxT0V8/6uUqFGTVhBjEs+zZ75vV2XRDBn4/YzBh8NTU6q7w/Q/5MPhexmL3wyH6Tv38By1G6ICnFtazwD8FuHu8v+b+r7El47N8/TLsZZyFCLAoUm7G66/UfD9MDRF2w+TnkcPw1DSsfwwTLoX7iFyN1QS4LlOQM/92dtNf8rw+w53XdeX2d6/r6PDLwEW4Jtmn+u2zjA8NcXbXP08ui/x8RiuPRyLPvaoJMArHID/s3vRVOHU4B8Tjl4FWIDfbZ1hrL7HpvE8evf8KfVoZBg9BDktPvzVo44At4+regeY6+bgYVFnzgr49qECjiGa5njcfzs/6u33/bGy59FpxRf/XMfTD8s+pt+c9sL+7P1eji8/WcSvWEOAZzsB3TXM9+TZ7y/fZ22BL6b95+ws4ev2zusv9DoA/nz9Z51PpD9rf5+hyh6Oc1t1OS9zNQQ4GYBX/tx5G4cfqn4x5Zbt44F4OybxeCzs71JBgA3ABb187DwYgACvJsAGYAAE2AAMAFUE2AAMgAAbgAGgigAbgAEQYAMwAFQRYF+CBYAABzAAAyDABmAAqCLAyQAMgADnX95K7wMMgACvOsCtARgAAc7PAAyAAAesbqb+bm0cAAT4smQABkCA8zMAAyDAAYszAAMgwPklAzAAApyfARgAAQ5YmwEYAAHOrzUAAyDA+SUDMAACnH9pBmAABLiUABuAARDgDyUDMAACXEiA3QYJAAH+eGUGYAAEuJAAG4ABEOCPtQZgAAQ4v2QABkCA85tjALZfABDgkYUZgAEQ4DICbLsAIMAjWgMwAAKcXzIAAyDAJQTYAAyAAI8yAAMgwAHrMgADIMAlBHhrswAgwGNaAQZAgEsIsFPQAAjwKJ9CAkCABRgA6giwWxECIMACDABVBHiOWzFs7RYABFiAARBgAQYAAZ7lZoQ+CAyAAAswAAJcSYB9EBgAAR6RBBgAARZgABBgAQZAgFcU4J3tAoAAf+hRgAEQYAEGAAEWYAAEWIABEGAB9mXQAAiwCRgAARZgEzAAAizAAAiwAAOAAHsPGAABNgEDgACbgAEQYAEGQIAFWIABEOBPcTtCAARYgAFAgAUYAAFeU4DtFgAEWIABEODFaQUYAAEWYAAQ4Bt1dgsAAjyyLAEGQIDLCPDWbgFAgAUYAAFeHgEGQIDLCPDObgFAgEckAQZAgIsIsM0CgACPaQUYAAEuIcA+BgyAAI+vS4ABEOAAPoUEgACXEOCdzQKAAI9KAgyAABcQYHsFAAEe17oGCwABDliYAAMgwAFcBA2AAK8/wDt7BQABvkJyDRYAApxf6y1gAAQ4YGUCDIAAB/AWMAACHCAJMAACnF/rGiwABDhgad4CBkCAAzgDDYAAB0gCDIAA59c6Aw2AAAesTYABEOAAyRloAAR4xQG2TwAQ4AmLcwYaAAEO4Aw0AAIcoHUGGgABDlidM9AACHAAZ6ABEOAArTPQAAhwwPK+oL9buwQAAZ4oOQMNgACvcQR2CRYAAjydARgAAQ7QGoABEOD1jcBbewQAAb5B8hkkAAQ4YIUGYAAEeG0jsB0CgADnH4ENwAAIcMAIbIMAIMD5R2ADMAACfLvWZ4ABEOAAyZdgASDAAas0AAMgwGsZgQ3AAAhw/hFYfwEQ4PwFdgIaAAH+vGQABkCAAxaa9BcAAQ5YqRPQAAjwwgusvwAI8FdJ+guAAC+5wDsbAwABzl5g2wIAAc5fYPMvAAKcvcCd/gIgwF+ud/0VAAIcsWL9BUCAIyRv/wIgwBGLvpDg3n4AQIDn1J9JcG/8BUCAZ0/wv1dj9aZfAAQ409r7PvVd1/XqC4AAA4AACzAACDAACLAAA4AAA4AAAwACDAACDAAIMAAIMAAIsAADgAADgAALMAAIMAAIMAAgwAAAAAAAAAAAAAAAAAAAAAAAAAAAAAAAAAAAAAAAAAAAAAAAAAAAAAAAAAAAAAAAAAAAAAAAAAAAAAAAAAAAAAAAAAAAAAAAAAAAAAAAAAAAAAAAAAAAAAAAAAAAAAAAAAAAAAAAAAAAAAAAAAAAAAAAAAAAAAAAAAAAAAAAAMBv9uBAAAAAAADI/7URVFVVVVVVVVVVVVVVVVVVVVVVVVVVVVVVVVVVVVVVVVVVVVVVVVVVVVVVVVVVVVVVVVVVVVVVVVVVVVVVVVVVVVVVVVVVVVVVVVVVVVVVVVVVVVVVVVVVVVVVVVVVVVVVVVVVVVVVVVVVVVVVVVVVVVVVVVVVVVVVVVVVVVVVVVVVVVVVVVVVVVVVVVVVVVVVVVVVVVVVVVVVVVVVVVVVVVVVVVVVVVVVVVVVVVVVVVVVVVVVVVVVVVVVVVVVVVVVVVVVVVVVVVVVVVVVVVVVVVVVVVVVVVVVVVVVVVVVVVVVVVVVVVVVVVVVVVVVVVVVVVVVVVVVVVVVVVVVVVVVVVVVVVVVVVVVVVVVVVVVVVVVVVVVVVVVVVVVVVVVVVVVVVVVVVVVVVVVVVVVVVVVVVVVVVVVVVVVVVVVVVVVVVVVVVVVVVVVVVVVVVVVVVVVVVVVVVVVVVVVVVVVVVVVVVVVVVVVVVVVVVVVVVVVVVVVVVVVVVVVVVVVVVVVVVVVVVVVVVVVVVVVVVVVVVVVVVVVVVVVVVVVVVVVVVVVVVVVVVVVVVVVVVVVVVVVVVVVVVVVVVVVVVVVVVVVVVVVVVVVVVVVVVVVVVVVVVVVVVVVVVVVVVVVVVVVVVVVVVVVVVVVVVVVVVVVVVVVVVVVVVVVVVVVVVVVVVVVVVVVVVXag0MCAAAAAEH/X7vCBgAAAAAAAAAAAAAAAAAAAAAAAAAAAAAAAAAAAAAAAAAAAAAAAAAAAAAAAAAAAAAAAAAAAAAAAAAAAAAAAAAAAAAAAAAAAAAAAAAAAAAAAAAAAAAAAAAAAAAAAAAAAAAAAAAAAAAAAAAAAAAAAAAAAAAAAAAAAAAAAAAAAAAAAAAAAAAAAAAAAAAAAAAAAAAAAAAAAAAAAAAAAAAAAAAAAAAAAAAAAAAAAAAAAAAAAAAAAAAAAAAAAAAAAAAAAAAAAAAAAAAAAAAAAAAAAAAAAAAAAAAAAAAAAAAAAAAAAAAAAAAAAAAAAAAAAAAAAAAAAAAAAAAAAAAAAAAAAAAAAAAAAAAAAAAAAAAAAAAAAAAAAAAAAAAAAAAAAAAAAAAAAAAAAAAAAAAAAAAAAAAAAAAAAAAAAAAAAAAAAAAAAAAAAAAAAAAAAAAAAAAAAAAAAAAAAAAAAAAAAAAAAAAAAAAAAAAAAAAAAAAAAAAAAAAAAAAAAAAAAAAAAAAAAAAAAAAAAAAAAAAAAAAAAAAAAAAAAAAAAAAAAAAAAAAAAAAAAAAAAAAAAAAAAAAAAAAAAAAAAAAAAAAAAAAAAAAAAAAAAAAAAKMAyPJeJAgBR+kAAAAASUVORK5CYII=;" vertex="1" parent="1">
          <mxGeometry x="90" y="192.64999999999998" width="100" height="56.35" as="geometry" />
        </mxCell>
        <mxCell id="USl1ifPrtfJnEXk17NBj-10" value="" style="rounded=1;whiteSpace=wrap;html=1;rotation=-90;fillColor=none;" vertex="1" parent="1">
          <mxGeometry x="-20" y="150" width="320" height="174" as="geometry" />
        </mxCell>
        <mxCell id="USl1ifPrtfJnEXk17NBj-11" value="DATA SOURCES" style="text;html=1;strokeColor=none;fillColor=none;align=center;verticalAlign=middle;whiteSpace=wrap;rounded=0;" vertex="1" parent="1">
          <mxGeometry x="110" y="40" width="60" height="30" as="geometry" />
        </mxCell>
        <mxCell id="USl1ifPrtfJnEXk17NBj-12" value="" style="rounded=1;whiteSpace=wrap;html=1;fillColor=none;" vertex="1" parent="1">
          <mxGeometry x="269" y="62.31999999999999" width="510" height="320" as="geometry" />
        </mxCell>
        <mxCell id="USl1ifPrtfJnEXk17NBj-13" value="" style="image;sketch=0;aspect=fixed;html=1;points=[];align=center;fontSize=12;image=img/lib/mscae/Data_Lake.svg;" vertex="1" parent="1">
          <mxGeometry x="330" y="196" width="40" height="52.63" as="geometry" />
        </mxCell>
        <mxCell id="USl1ifPrtfJnEXk17NBj-14" style="edgeStyle=orthogonalEdgeStyle;rounded=0;orthogonalLoop=1;jettySize=auto;html=1;" edge="1" parent="1" source="USl1ifPrtfJnEXk17NBj-13">
          <mxGeometry relative="1" as="geometry">
            <mxPoint x="490" y="222" as="targetPoint" />
          </mxGeometry>
        </mxCell>
        <mxCell id="USl1ifPrtfJnEXk17NBj-15" value="CLOUD ENVIRONMENT" style="text;html=1;strokeColor=none;fillColor=none;align=center;verticalAlign=middle;whiteSpace=wrap;rounded=0;" vertex="1" parent="1">
          <mxGeometry x="494" y="30" width="90" height="30" as="geometry" />
        </mxCell>
        <mxCell id="USl1ifPrtfJnEXk17NBj-17" value="ETL" style="text;html=1;strokeColor=none;fillColor=none;align=center;verticalAlign=middle;whiteSpace=wrap;rounded=0;" vertex="1" parent="1">
          <mxGeometry x="400" y="189.82" width="60" height="30" as="geometry" />
        </mxCell>
        <mxCell id="USl1ifPrtfJnEXk17NBj-18" value="DATA LAKE" style="text;html=1;strokeColor=none;fillColor=none;align=center;verticalAlign=middle;whiteSpace=wrap;rounded=0;" vertex="1" parent="1">
          <mxGeometry x="305" y="254.82" width="90" height="30" as="geometry" />
        </mxCell>
        <mxCell id="USl1ifPrtfJnEXk17NBj-20" value="DATA WAREHOUSE" style="text;html=1;strokeColor=none;fillColor=none;align=center;verticalAlign=middle;whiteSpace=wrap;rounded=0;" vertex="1" parent="1">
          <mxGeometry x="494" y="260" width="60" height="30" as="geometry" />
        </mxCell>
        <mxCell id="USl1ifPrtfJnEXk17NBj-21" value="" style="shape=image;imageAspect=0;aspect=fixed;verticalLabelPosition=bottom;verticalAlign=top;image=data:image/png,iVBORw0KGgoAAAANSUhEUgAAArsAAAK7CAMAAADFvbewAAADAFBMVEVMaXH/yQD/yQD/yQD/yQD/yQAeGBr/2QCffQANChw8MBberwCCZgRnUg68lADxvQAAAAAAAAAAAAAAAAAAAAAAAAAAAAAAAAAAAAAAAAAAAAAAAAAAAAAAAAAAAAAAAAAAAAAAAAAAAAAAAAAAAAAAAAAAAAAAAAAAAAAAAAAAAAAAAAAAAAAAAAAAAAAAAAAAAAAAAAAAAAAAAAAAAAAAAAAAAAAAAAAAAAAAAAAAAAAAAAAAAAAAAAAAAAAAAAAAAAAAAAAAAAAAAAAAAAAAAAAAAAAAAAAAAAAAAAAAAAAAAAAAAAAAAAAAAAAAAAAAAAAAAAAAAAAAAAAAAAAAAAAAAAAAAAAAAAAAAAAAAAAAAAAAAAAAAAAAAAAAAAAAAAAAAAAAAAAAAAAAAAAAAAAAAAAAAAAAAAAAAAAAAAAAAAAAAAAAAAAAAAAAAAAAAAAAAAAAAAAAAAAAAAAAAAAAAAAAAAAAAAAAAAAAAAAAAAAAAAAAAAAAAAAAAAAAAAAAAAAAAAAAAAAAAAAAAAAAAAAAAAAAAAAAAAAAAAAAAAAAAAAAAAAAAAAAAAAAAAAAAAAAAAAAAAAAAAAAAAAAAAAAAAAAAAAAAAAAAAAAAAAAAAAAAAAAAAAAAAAAAAAAAAAAAAAAAAAAAAAAAAAAAAAAAAAAAAAAAAAAAAAAAAAAAAAAAAAAAAAAAAAAAAAAAAAAAAAAAAAAAAAAAAAAAAAAAAAAAAAAAAAAAAAAAAAAAAAAAAAAAAAAAAAAAAAAAAAAAAAAAAAAAAAAAAAAAAAAAAAAAAAAAAAAAAAAAAAAAAAAAAAAAAAAAAAAAAAAAAAAAAAAAAAAAAAAAAAAAAAAAAAAAAAAAAAAAAAAAAAAAAAAAAAAAAAAAAAAAAAAAAAAAAAAAAAAAAAAAAAAAAAAAAAAAAAAAAAAAAAAAAAAAAAAAAAAAAAAAAAAAAAAAAAAAAAAAAAAAAAAAAAAAAAAAAAAAAAAAAAAAAAAAAAAAAAAAAAAAAAAAABE82xOAAAABXRSTlMATLXkhAD7rB4AAAAJcEhZcwAACxMAAAsTAQCanBgAABwNSURBVHic7d3bWuM6FoXRqYPjFO//rKkcLKkvYFdDCMSWZceS//H1za4mEJLJytLJlgAAAAAAAAAAAAAAAAAAAAAAAAAAAAAAAAAAAAAAAAAAAAAAAAAAAAAAAAAAAAAAAAAAQC3Ma36okxRf8aNRmpWClF7wk1fOrpGLxq77M7GGmGxYOcErZtcQ29bFZMN6+V0pu8ZFt85PwotFs1b9XSO7BHdnYkprpHfx7BoZgrs/0SzfPCycXeMSLe5OBTss+wMWza4xDM72LCw7clswuyQX0SxYe5fLriW5WDS9S42jvHEvWbLDxpjlYrDMdzaWmot/wjLL/4tk1zIrhs+WaRwWSJlxRBdfLNM4lP+mnj4X38VYfLqsdNDodPGDVLpvKPzx7pldwA+KJ6NsdukX8LPSn8hFw8b8An5XtG8omF3DhjE8UzK85bLLKA0jFAxvsewSXYxSLrylPuaJLsYxxU4EFcou0cVYtlR4y/QMRBcTFGobymSOrbqYwPgy36bEN2FeF9MUqbwlCibRxURFNpYViJ2nYcArzM/dgoc60KwSg/vZdddYsovpCkzzzg4ezS7yzB6vzU0ezS4ymbmFd2b0aHaRbW7Zm/l4qi6y2ZlLFPN6BjoGzDCzaZgVPjoGzDFzimpedmf9aOyem9U1zMkuZ3ww06yuYU52aXYx06zh2ozSyUANs80pvDPy94rbwaExc5Zl8x9K2UUBMypgfgApuyhgRuHNfiRlF0Xk18DsBFJ2UUR+4c3NLqcrUUh2FczObu4PBL7KXhnOzC5Laihm5ewSXRSTe73xzOwyUkM5mZUwL7uM1FBQZiXMCyEtAwrKHK3lZZeWASXl1cKs7NIyoKi8WpiVQloGFJXXNGRld5lbG2O/sqphTnZZmEBhWdWQzhUbsFrPQNlFYVkNb052aXdRWk49zOp3Mx4DlJaRXWZ3UVzOZzk5xBas1O8yVEN5GeGl7mILcnKY8RimGVBexqd5zlht+kOA8ugZsAkZn+YZ2SXu2ASCiFpNzy7tLhbAHBl2hOyiVmQXtSK72IbpDS/ZRa3ILmpFdlErsotakV3UiuyiVmQXtSK7qBXZRa3ILmpFdlErsotakV3UiuyiVmQXtSK7qBXZRa3ILmpFdlErsotakV3UiuyiVmQXtSK7qBXZRa3ILmpFdlErsotakV3UiuyiVmQXtSK7qBXZRa3ILmpFdlErsotakV3UiuyiVmQXtSK7qBXZRa3ILmpFdlErsotakV3UiuyiVmQXtSK7qBXZRa3ILmpFdlErsotakV3UiuyiVmQXtSK7qBXZRa3ILmpFdlErsota+Vc/gVV8/QuNL3oWKGsH2bWK3un68V+H4M/Etwmt9wzWqjfHdD6bD+cUO9PLtv6L74CZ/oiKSrWVN+biJIV//+YkGZesofxuSYxp6kNazq6VtyF9zu1/nBS8HdxAerciI7tu8g8xtXzaWu9uUkgPXpOUkkyKtotdsJNfMyzg0dv0RDVFdDqTovtecv8JUhqiPSb7d73nhIKaze5buJpfkivpI75BnbXmtMqTQkmt9rt/hmHKl3t3c578vhD97n/cbdogLIYUXer6m2h/XyOj322x7trYX59/1SPeWqMzkw8vQN2VJKtDyCyeUTGqM30whvK7LuYZJFl1z8ZoPwuSC8GaAysX29de3TUmPViNGC8lydyc7Tqq74oy6m5z2bV9nBVd6f11TDH6zgRLfNfBWE3Wp/Q4uu9/pRNi7STjbu5qaR5WkDFW23QQM0Q7PIqnUzBOUnDj0xskN5h0TPYv8d2ixrJr+9ujnTfGWuslKfo4pR0Okht07aw1Z9K7NY31DG+3Bx1Db8zJvk8bWMW3IXSXSd/UScG7m8ucNMYY7IF03/cweH+318bGt8GlMGnNWE7Bu9uBbTtL2X123273iXTGDA8/7d9SjNPiK70vvLHtYQm7H6ulb9EN3ePo6iTpT4waJozepEHyvQ3+ZGl/X66x7N79twvHyy8h+ysdrA9yU+bOBrlgnfMnJh9erKm1ibf7Gmu765N8BRN6bxScHb+BLCnYZFLPykVBe19X83czAc5fnoYrpVuMvTcumSnxTTJRHQtvxew9u3dHfFzo4piP9ZRuMd587KbEN6VkUtQh9odAfOfbe3bvBlD28Kxj+CclJd28N4puUnyjuTniW8DO9zMcbnf/YNO00ZSVvLvaaVMPTgo9l3uYa+d7zw9fZ8icO0xcCUsppaDehy5Mqr4uppu66BPVN9vOe4a7X9/6y/TXI6UUgjrjjTFT4isTo+3iceC8W56d9wz3p9SmtgyfH6r4NpiJC29OwYuFtzw7X1f7+nfojJ+25eazKJ0V38ykbTtBSrrKHw3xXUNLPYP/MsKy5tsK8SQp6RbSwehgotzIopCSFMMwHNOMQ3O7xFnLL+6XKnKcpPDmY/TTJh8uil08mNP9tB0Kajm7s8ruJydJh0OUJm7bOfveBs/lHpbScnZLulr56dt2XDDROC60vgyyO1LU1V79MZrLhPgGKZkbl3tYRstjtafXgZwopRBjN3HbTkqSicZ2JnG5h18wVlta1MkqHmIXplVfKZhu4Lx8UZstopsVo4Z0Np0zzo3+1AohpGDSkbu0FETdzRClYYgHf+00qfq6wQzHZA1TD0VQBPLEqOESrE1+wpAhhJCGcL515o3XfT7GatlS0i3Fg/HOjC+jH3dpUcfC21eM1dYWdbLXN+snnZf/uEtLZxO3CZiD7M4VdZL0sW3ntxsLfRakwV2VemtEfjOR3TJOUni7dGHCwnF4v9yD47x8JrJbzul92860fQ/D4G5c7iEL2S3qJBv/RB+mxDfo4uKtt4GVi2mYZygsKSo4dSlOuFzJ+3n5Lvl+tweOmWfYgigNuh79pG07QXLBpMi2nfGou0tIKYUQOx+mXK7kv8s97HPbDnV3O6J0lmyctG3n4zrrvhvcQPV9hrq7nJTS7eNqO5Oqr0yKtot+V9c6y6i7mw1iI2LUcLmYbuK+B6UhpmPX8/78grq7uJSUQjyYeAhjjxt/XGhykPOHb1eqatPOr4uz0ezq07YdO2nbjqIZBh12sW2HsdqGfex7eN+2M2Xfw6DYRec5L3+P7K7rJOkQukkLb9KgmHrL5R6+Irvruyq8xYzbXJj3u7Qwd/aB7L7EyV6PPsZJ8Q1ygbu0fEJ2X+P9wPGfaCYeOB7MLblDYOVCZPeFonSR/OTz8sncTMeuM+bIXiullBTc9NtcpKhDWwtvzJHVJ0rDoKO/Tt73YNLOz8uT3df72LbTBR/Hz5y9b9uJ6vYbX3qGTXjftjP4qbe5MEo3dbGr/y4t7MWp2fu2nc6mfvxjwse2nYM5LPfEtoqeYUveb3PRd5NvczFE2+3uLi1kd2Pix3n5lMIweuH4/bj83u7SQna36STpz/Tz8tLxtpuFN7K7XX+lw+T7BFwUkzvsYuWCsdqmXdO1s96ECZf6fV837nvf/JV+qbvbFnWy14x9Dy6Y463xu7SQ3c2L0kXxz6SFNwW5ofW7tLA2UYOUFHXz0U87cOzeL/fQ1XCxHfYztCtKg27eR6Ppl3uwlxZrL9mtx/ttLt66axemXChVKVx7c2kvvGS3Kv9t23HJpEm9b+jj0Fp6yW5tonSy17fooxl9n4AgNxiz5LN6BbJbo6iTverNX0fvewiSjratBWPmGSqVpNuQhoMOJmrc9XaCs9t9RbguzieNZ/dDSMPRW9mRZ4Z8RkTWwRzZHp0k/bFjtu0EJ9/QiG2zRRRT/L3djPVGT/Y9hJR8O+94O7/JvkVd09VY92TbTkjp2MxbTs/QjKirvT27zUVwMbZyUTPGai1J6Raf3OYiyWiL4zXGaog6WZ0PPsafqm/sGhmvbbaIItt/9wlwXg963+BaaXnb+C1w5z2+tkv+QXhTI/tyyG6rYtRpCLb73hUGe2jibaffbVnUOb7Z6/0/p9hE4W3iDxA/ijpd7H3fEGwTV9Ehu+0L6X7INjQxe0h2d+D73Kl9e8XzKIx+dweijndTvUMLG9Gpu3tgY7jrGlpoGsjuHsThfnDWveR5lEV29yGZr4U3NNDwkt1diMP9TMMW9+NMxFhtJ253yxENrE5Qd/chugc7GypHdnfifmGYuota3L3RLRRhsrtPzO+iHu5LXKm7qMfXSbGg+reSkd19ou6iVvS7wOuQXdSKNeEXs5KOJ6uVVwta6HfJ7itZ+eCNbkcp2TCsGN/QwBvfwK9QLetDF2LQ+42sr/5we/UzqgvZfRV7DDEOn0b8aYhdbGH8vxay+yK2vw1fL/YcpBQ7v85Fa1rod5lneJHuPHyfZA1K53VOQbZQ38nuK9i34w/hCTI9b8o4vEyvcIw/X90jhGMDe2vXQHZf4ZfoSmHol38G9LvI4n6/plK4v5jCAuh3kePwbCYsxPo3KK6A7K7v+WvueFtG4EVa3Z/n9wAOl6ULL/0uMtxf5uOhpd8X+l1Mdxh18dvFC28DyO7K7Mh1sxYK48LI7spiHNdqLnyhRvpdTDa2F1i47rZQ1snuuqwbRn2da+AM+tLI7squ40peGDUbsW9kd6u+3RWtqBb+MsjuPrXQ73JuoohPJYANjGshu/NZHYcgL2k4yJxJ70rI7lxWfYwpuiDJnL06+9duP70t9Ltkdybbp7PTvwYyKVy7qM2nl+sz7J719uw+X9k2SG690777xjzDHLZPgwt3Y/YQlM5dA/cv2zrq7hzm9niyKbhgDsOWS28L/S51d4be3Nfc/4Qw2OO6T2aaFuZ3yW6+b93CZ+ESaRuWRc+Qy/bn37/gQl1YFq9vLv90Q1j8s8bzyEO/u2fm+d2kx213fAn63R07XJ+//cOGC28DWsrufSFcdBfhmBfOPS/NyNdSdu8+ohe9QMfb84ssSAqbPfxAv7st/ZdJk3Bbcm1gXHQHs9XXl353W06fw+r6Rd+eccd43ToXgt6plrKr/tPFP82iK7JvI/8wwqYX1yrXVHZP9l9/2ZtFR2qjZ7/SRl/gFvrdttbVTvoToyRnzJNFr5nCuKq+3V2y231m4zXwK3zxV5K0mRuVDa29vluy0Y+0Zix7Un3fqAv/9/+/4y3vvC2DfrchVjoOTlfpoHC1rceXfrcZVscUYzo7I53ljze35o2pkYXsSpL14Zakj+UmlwaTDuZCereN7Eo2mmTS/1cbgiQ3hD5u+sTZPPS7TbDeDul+nSzIDaHhSZgW+t2G356RbJ+GRwfPQnBxhRtMItvus2v787ei+yEoEN4N23t2bX92P++rCddWw9tCv7vz7Fo//BJdSdcW3uQH2L9bvaP9qWH4j93s0Yfd23l2L09v1Dfs/BXasH2/M0/vqC7p8qfF16iFVqjF92W8MOItbPOwL/1u5d7smLewhWn8Ju06u2lMSd3wYd+d2/XbMqLbVaOHfel3Kzdyq02Lh33pd+v2Nva071YP++7cnt+VkdENG76c467tObuje74GD0y20O82Nv9jo94+Tpafnt7krMFIjtbCxF8Dv8L/2ehdjGHQTd71Nvhzuwcf0FJ27THF63/TXsMgF2xfw+1RkamZ7Fr5OHyZ+wkadOTE5GP0u9tho7t924kbJHWOxuEB+t3NsMf4cBN5kKJv+LjvrrWRXXu8/XjozInwtqmJ+d1foiuFlNr4Ay2qhX63hezaY/zt5E5Iibuj3mthP0MLJSlezK9vRfj9OCUq1UDdtX+e7WUMV27S16AGsntMT5s3N9A1fEW/uwnp6VlfhaavLZajhS6q/rf07dkVFiTJRabJmlN/docxt5gMQ5Mn1fet/nd0XOfmqLtf0O9WJDZ46GwG+t2acOisNXt5Qzl01p69ZFduzyd8vqPfrUkLq9/l0O8Cr0N2USuyu0/0u6gV/S7wOmQXtSK7+0S/i1rR7wKvQ3ZRK7K7T/S7qBX9LvA6ZBe1Irv7RL+LWtHvAq9DdlErsrtP9LuoFf0u8DpkF7Uiu/tEv4ta0e8Cr0N2USuyu0/0u6gV/S7wOmQXtSK7+0S/i1rR7wKvQ3ZRK7K7T/S7qBX9LvA6ZBe1Irv7RL+LWtHvAq9DdlErsrtP9LuoFf0u8DpkF7Uiu/tEv4ta0e8Cr+Nf/QTWEtKrnwEK20vddTq8+ilsCv1uRXwLHV45Lbwau8mufHz1M0BZu8muO7/6GaCwBsZqbsznH0O1r+h3t8CYEV/kfKBl+Ix+dwtOcUwNsfX/orhT/1tqR/QMzjjKbnPqz2682qeFN0RGal/R726C7f2zd6Kn271Dv7sJ8RzD7+FlardJDWRXcTj+Gl5vrqs9F6ynhewqXuwv4fWe6H5Dv7sVMR3N43fDyZu/Kz+bGtDvbka8GP+gljgXDt3wgueDFTSwJixJilc5I/elnjiFvrtcXvacsKxWsispddGHT8U3GNf9tUwxPNRCv9tQduPJng/Wf5Rel5K5SkT3sdDAG9/Ar/B/UYOu8SBJ/mQ1ENymNZXd9zI7SNIwouIexi0Uu3CgZ96ixrIrTWgTxs4TtXFcyLiv49j6NTJHluU69g+3iTXlcPdf9VetPWd3bPFp4rjQ3Z+f0+k1z6OgXWf3Nuqrwrgv27i7I/4ttEG7zu6ouut830DLYN3wJa70u5W79iO+KNgWWgbdnYx6smu0CvV37HOMOabp0wbLrp266hLvv7yBc9P7zu7f4/Cs8XNxc62h1XGQ/HlCfK2535HUwA6lXfcMss9OXMiZMX3FquzRxJRu0fg3O/L4s43fzvTRM1QuXp+9hcZsbS7J9jczBGkwN2sO5jyqe+jD3adHC/vx9113ZYN7ctRtc5+t/TmFICkEDeZ863r/tPra/ltSGyi7Gb+DaSnuyQ6HX4Ytzlwf/5927FDH3H13Y0Y/8vEXvg3mXwlNSSbdrE8+/fZ9rb9+u4bF5nbkp+mDx5aCmCPas/up9LqcF3RpKX2JYQhKIaaD+bn62j59i64fM8OydXvPrqK9pMcDNmeOG5weS9+mPUJQGmI6dP2jd9O+Hc7fH2O31sXn2PdYTZKiwsF+nwdzwbnz9qL7eDtmkNIQfGftt4Mi/e171W1idpfsSpKG4zHdZcJbu8lNu+6nzRVBSrqqc19mRv6k84PkOm8bmGYgu5IUT9IhdOG/8Yt3N7PJ5P4uSEoX+aN5P9EzhO78cNdN6FpoGcjuf64Kb8ZdJR2CP212n9Wz5xWkYZCSUxikx3+AromRGtn97KMY/VW5D1T342d8Jp9GTW4Nv3yVC010DMwzLCyUnkYdd6Xs39lGDqGS3UUdiu/9fX7B1idcG8fvRHYXVn7v78maJ8vYv3MmtnK9FbK7rPIxOXfO/LgU+JQLvpGOgexmGnmD1yU+nuP5ZrLj63S8tBLdve/FyWVHfe46091PM8zeiyOllMLgvZEZvSPo3xMKZqtVN2PrCNnNEkbdNyh1l/t3pEB2pZT0Hl8zMb7JbnCHxjv2ka1m3N/8bbGkxKjhculsmjRBb5u6ZwxrE3lGrUx5s+R0VJTOir0JduQksvdtXQGe7OYxYw5ULL6dJ0onqTef9mL8qN/e8aWZyG6e05gjmCs1ZCcpHGwXBvdwu4NTUH9r4sJUX5HdTCOGFocVP6KvCm8+BT+4L/t1nBSMS+682c1FM5DdTNdvR2/v+ZU3eJ9kj8ma8GkgGYxcMteCm4u2hOzmcvHXm3C7sP7IKJ6sdEzRKzgFp9Tpb2g0uBo5Xv76COIuSbL9oyMJ/7jvh8QkyZqxs1QPziGNfKCko6SzVNH9NmKc/DFFdrNZY37sIp3c7WFuVsiuJNnqNtxkZJe1iXwp/bRE4ZRu365et6ZYT8HNR3azRaXuh9PxoWviIO7G0QDki7p09sERMudtO5u1NozszhGH+OfbglZvuJvmKthHNkvScPSfx19e3v39ZeGiyD6yFmXsI6PuznWS3oyLg/R+PD40O5+6NcyRrWv0HFlrm76eYY5s+8b+5cd9RTcH2V3Z2As2jDwRt2dkd2WHkddXaHDfV2lkd11j7xrkGVU8RXZXNnIWwjV2xmEJZHdldtwemybuYbwwsruyaEd1Ay3ch2dpZHdtf8fk8vtNpfANQ4LVjdkc2cbFnRdG3V1deFovXE92RyC763ua3RCZZRiB7K7v75M1M9fINfWXRnZfwPW/Ddfcr+eP8Q/ZfYFTND+H13nHmzIKe89fIbmftpY7689NXaxxLK6/W4mUevPwXvBO7rLPA0NktxYp3LrB3b9dzpruOvoCDm3hzE81or0dv71bJh42ePvtzeLMz8vY+Cd+eflvbtjDJUEeyzjzQxBfJuoS3z7/Q9rqfUw2irr7cjZ+/G/XOGtZo/jf/zAN2UWtyC5qRXZRK7KLWpFd1IrsolZkF7Uiu6gV2UWtyC5qRXZRK7KLWpFd1IrsolZkF7Uiu6gV2UWtyC5qRXZRK7KLWpFd1IrsolZkF7Uiu6gV2UWtyC5qRXZRK7KLWpFd1IrsolZkF7Uiu6gV2UWtyC5qRXZRK7KLWpFd1IrsolZkF7Uiu6gV2UWtyC5qRXZRK7KLWpFd1IrsolZkF7Uiu6gV2UWtyC5qRXZRK7KLWpFd1IrsolZkF7Uiu6gV2UWtyC5qRXaxDWnyI8guakV2USuyi1pNz+70vgRYAnUXm5BREjOyG6c/BCiPuotNyAhixkNoeLEJ68QdeCJMfwhBxBbkDKIyspvxFwI8sc48A1BcziAqZ6zGJBlKy6mhOY9hogFbsFbegd/kDKJycshgDYXFlfpdoLSsNtRl/SgSj6LMSvO7RBelZbWhWTGk4UVRWe1uXnaZ4UVRJutReR//eT8LeCzvgzwvuzQNKCivZcjMLk0DCsr8GM+cMqBpQDmZH+OZ2aVpQDEhc4NM3tqEmONFMbkNaG4E2UuGQjJHajOyy2gNZWSPnfzqPxH4LGZXwex+NxrSixKys5tddym8KCG/7ObXXQovisjPbn7dpfBivhlld0bdpfCigNdkl/UJzBXnLNDOyi7hxUxzlglm9LssrmGmMGuFa1blTIQXM2SvBr+b1zMwXMMc8zYWzMsuHS/yzRqoaXb26BqQbe52rrl1N1J5kWf2VsS52RXra8gSZp+9KZBdCi+mm7MY/GF+8Gh5MV2B6Jaou7S8mCz3fOVnBbKrRHgxTZEjYyWyS3gxTRpKfJci2RWTDZigTHSLZZfwYqz5s2PvimWX8GKceZvHPimXXcKLMVKx64EVzC7hxXOFel2pbHYTsw14omB0y2aXqTL8rmR0C3/Oe9oG/CzOPChxp3DYCC9+FApvfSnZM0iKiREbHis3wfChfNIovXigcL8gFa+7ovTikdL9grREdplvwL24yA1KlimRxpJe/FNsFfirJequpGQTjQMkSaF8p/tuoewqJtaIoaXaBUnLZVdKYtC2e3GpfkFaMrukd/eCKXGk8kdLZldKMvS9exXMgjVXWqMnNWbZvw9sUTQlTgL/bo2qaER8dyWmVS7asU6oUjKRGd99iIusoT2yYjdqXDQEuGkx2eVbhX9WHkkZEeA2xWTDyjdxeMksgJHT/MuvYhOsFLj1CAAAAAAAAAAAAAAAAAAAAAAAAAAAAAAAAAAAAAAAAAAAAAAAAAAAAAAAAAAAAAAAAACs5X/RTP6YHcTw1QAAAABJRU5ErkJggg==;" vertex="1" parent="1">
          <mxGeometry x="650" y="197.32" width="50" height="50" as="geometry" />
        </mxCell>
        <mxCell id="USl1ifPrtfJnEXk17NBj-23" value="ANALYTICS" style="text;html=1;strokeColor=none;fillColor=none;align=center;verticalAlign=middle;whiteSpace=wrap;rounded=0;" vertex="1" parent="1">
          <mxGeometry x="630" y="254.82" width="90" height="30" as="geometry" />
        </mxCell>
      </root>
    </mxGraphModel>
  </diagram>
</mxfile>
